<svg width="206" height="45" viewBox="0 0 206 45" fill="none" xmlns="http://www.w3.org/2000/svg">
<path d="M21.6387 0.986328C12.5899 0.986328 5.29329 8.09393 4.83725 17.0326L0.228842 23.1283C-0.347209 23.8752 0.228842 25.0799 1.23693 25.0799H4.83725V32.308C4.83725 34.9823 6.97343 37.1267 9.63767 37.1267H12.0379V44.3547H28.8394V33.0549C34.5278 30.3564 38.4402 24.598 38.4402 17.8518C38.4402 8.55171 30.9515 0.986328 21.6387 0.986328ZM31.3836 16.8158L26.6792 18.0687L30.1355 21.5622C30.5385 21.9686 30.7648 22.5187 30.7648 23.0922C30.7648 23.6656 30.5385 24.2157 30.1355 24.6221C29.7306 25.0267 29.1826 25.2539 28.6113 25.2539C28.0401 25.2539 27.492 25.0267 27.0872 24.6221L23.5829 21.1526L22.3588 25.875C22.0708 27.0556 20.8707 27.7302 19.7426 27.417C19.4667 27.3471 19.2075 27.2225 18.9802 27.0507C18.7529 26.8788 18.5621 26.6631 18.419 26.4162C18.2759 26.1694 18.1834 25.8963 18.1469 25.613C18.1104 25.3297 18.1306 25.042 18.2064 24.7667L19.4785 20.0202L14.7501 21.2972C14.4758 21.3743 14.1889 21.3954 13.9064 21.3592C13.6239 21.323 13.3514 21.2303 13.1052 21.0865C12.8591 20.9427 12.6441 20.7508 12.4731 20.5221C12.3022 20.2935 12.1786 20.0327 12.1099 19.7552C11.7979 18.6228 12.4699 17.4181 13.646 17.129L18.3504 15.9002L14.8941 12.3826C14.533 11.9686 14.3422 11.4323 14.3604 10.8823C14.3785 10.3324 14.6043 9.80993 14.9919 9.42085C15.3795 9.03176 15.9 8.80514 16.4478 8.78692C16.9957 8.7687 17.53 8.96023 17.9424 9.3227L21.4227 12.7922L22.6708 8.06984C22.7381 7.79905 22.858 7.54426 23.0236 7.3201C23.1893 7.09593 23.3973 6.90679 23.636 6.76353C23.8746 6.62027 24.139 6.5257 24.4141 6.48526C24.6892 6.44482 24.9695 6.45929 25.239 6.52785C26.4391 6.84107 27.1112 8.02165 26.8232 9.20223L25.5511 13.9246L30.2555 12.6476C30.5345 12.5754 30.8249 12.5593 31.1101 12.6002C31.3953 12.6411 31.6696 12.7383 31.9173 12.8861C32.1649 13.0339 32.381 13.2294 32.553 13.4614C32.7251 13.6934 32.8497 13.9573 32.9197 14.2378C32.988 14.5083 33.0024 14.7897 32.9621 15.0659C32.9218 15.342 32.8276 15.6075 32.6849 15.847C32.5422 16.0865 32.3538 16.2954 32.1305 16.4616C31.9072 16.6279 31.6533 16.7482 31.3836 16.8158Z" fill="white"/>
<mask id="path-2-outside-1_1811_2879" maskUnits="userSpaceOnUse" x="42.6406" y="3" width="161" height="41" fill="white">
<rect fill="white" x="42.6406" y="3" width="161" height="41"/>
<path d="M51.7603 21V6.4423H43.6351V4.74954H61.9169V6.4423H53.7917V21H51.7603ZM64.2927 21V4.74954H80.2469V6.4423H66.324V11.8591H79.665V13.5519H66.324V19.3072H80.5431V21H64.2927ZM81.9244 13.0864V12.6632C81.9244 11.2243 81.9949 10.0182 82.136 9.04491C82.2771 8.06452 82.5204 7.26751 82.866 6.65389C83.2116 6.04027 83.6807 5.57123 84.2731 5.24679C84.8726 4.92234 85.6238 4.70369 86.5266 4.59084C87.4294 4.47094 88.5156 4.41099 89.7852 4.41099H94.0488C95.5017 4.41099 96.7255 4.48152 97.72 4.62258C98.7215 4.75659 99.5256 5.02814 100.132 5.43722C100.746 5.83925 101.19 6.43524 101.465 7.2252C101.74 8.0081 101.878 9.04844 101.878 10.3462H99.8465C99.8465 9.32351 99.7548 8.53003 99.5714 7.96578C99.388 7.39447 99.0777 6.98186 98.6404 6.72795C98.2101 6.47404 97.6212 6.31887 96.8736 6.26244C96.1259 6.19896 95.1843 6.16722 94.0488 6.16722H89.7852C88.7766 6.16722 87.9266 6.19896 87.2354 6.26244C86.5442 6.31887 85.98 6.4564 85.5427 6.67505C85.1124 6.88664 84.7809 7.2252 84.5482 7.6907C84.3225 8.15621 84.1673 8.791 84.0827 9.59505C83.998 10.3991 83.9557 11.4218 83.9557 12.6632V13.0864C83.9557 14.2854 83.998 15.2799 84.0827 16.0698C84.1673 16.8598 84.3225 17.4911 84.5482 17.9636C84.7809 18.4362 85.1124 18.7888 85.5427 19.0216C85.98 19.2543 86.5442 19.406 87.2354 19.4765C87.9266 19.5471 88.7766 19.5823 89.7852 19.5823H94.0488C95.1843 19.5823 96.1259 19.5576 96.8736 19.5083C97.6212 19.4589 98.2101 19.3143 98.6404 19.0745C99.0777 18.8347 99.388 18.4362 99.5714 17.879C99.7548 17.3147 99.8465 16.5248 99.8465 15.5091H101.878C101.878 16.8069 101.74 17.8437 101.465 18.6196C101.19 19.3954 100.746 19.9808 100.132 20.3758C99.5256 20.7637 98.7215 21.0212 97.72 21.1481C96.7255 21.2751 95.5017 21.3386 94.0488 21.3386H89.7852C88.1982 21.3386 86.8934 21.2292 85.8707 21.0106C84.8479 20.799 84.0474 20.404 83.4691 19.8257C82.8978 19.2473 82.4957 18.415 82.263 17.3288C82.0373 16.2426 81.9244 14.8285 81.9244 13.0864ZM104.698 21V4.74954H106.729V11.8591H121.625V4.74954H123.657V21H121.625V13.5519H106.729V21H104.698ZM127.112 21V4.74954H129.228L145.552 18.4926H145.573V4.74954H147.605V21H145.489L129.164 7.14056H129.143V21H127.112ZM158.211 21.3386C156.624 21.3386 155.32 21.2292 154.297 21.0106C153.274 20.799 152.474 20.404 151.895 19.8257C151.324 19.2473 150.922 18.415 150.689 17.3288C150.464 16.2426 150.351 14.8285 150.351 13.0864V12.6632C150.351 11.2243 150.421 10.0182 150.562 9.04491C150.703 8.06452 150.947 7.26751 151.292 6.65389C151.638 6.04027 152.107 5.57123 152.699 5.24679C153.299 4.92234 154.05 4.70369 154.953 4.59084C155.856 4.47094 156.942 4.41099 158.211 4.41099H162.475C163.745 4.41099 164.831 4.47094 165.734 4.59084C166.636 4.70369 167.384 4.92234 167.977 5.24679C168.576 5.57123 169.049 6.04027 169.394 6.65389C169.74 7.26751 169.983 8.06452 170.124 9.04491C170.265 10.0182 170.336 11.2243 170.336 12.6632V13.0864C170.336 14.8285 170.219 16.2426 169.987 17.3288C169.761 18.415 169.359 19.2473 168.781 19.8257C168.209 20.404 167.412 20.799 166.39 21.0106C165.367 21.2292 164.062 21.3386 162.475 21.3386H158.211ZM158.211 19.5823H162.475C163.484 19.5823 164.334 19.5471 165.025 19.4765C165.716 19.406 166.277 19.2543 166.707 19.0216C167.144 18.7888 167.476 18.4362 167.701 17.9636C167.934 17.4911 168.093 16.8598 168.178 16.0698C168.262 15.2799 168.304 14.2854 168.304 13.0864V12.6632C168.304 11.4218 168.262 10.3991 168.178 9.59505C168.093 8.791 167.934 8.15621 167.701 7.6907C167.476 7.2252 167.144 6.88664 166.707 6.67505C166.277 6.4564 165.716 6.31887 165.025 6.26244C164.334 6.19896 163.484 6.16722 162.475 6.16722H158.211C157.203 6.16722 156.353 6.19896 155.662 6.26244C154.971 6.31887 154.406 6.4564 153.969 6.67505C153.539 6.88664 153.207 7.2252 152.974 7.6907C152.749 8.15621 152.594 8.791 152.509 9.59505C152.424 10.3991 152.382 11.4218 152.382 12.6632V13.0864C152.382 14.2854 152.424 15.2799 152.509 16.0698C152.594 16.8598 152.749 17.4911 152.974 17.9636C153.207 18.4362 153.539 18.7888 153.969 19.0216C154.406 19.2543 154.971 19.406 155.662 19.4765C156.353 19.5471 157.203 19.5823 158.211 19.5823ZM177.235 21L186.714 4.74954H189.423L198.902 21H196.532L194.501 17.2759H181.636L179.605 21H177.235ZM182.652 15.5832H193.486L188.069 6.10374L182.652 15.5832ZM200.961 21V4.74954H202.992V21H200.961ZM43.9948 35.0864V34.6632C43.9948 33.2243 44.0654 32.0182 44.2064 31.0449C44.3475 30.0645 44.5908 29.2675 44.9364 28.6539C45.282 28.0403 45.7511 27.5712 46.3435 27.2468C46.943 26.9223 47.6942 26.7037 48.597 26.5908C49.4998 26.4709 50.586 26.411 51.8556 26.411H55.8335C57.4981 26.411 58.8488 26.4745 59.8856 26.6014C60.9294 26.7284 61.73 26.9717 62.2872 27.3314C62.8514 27.6911 63.2394 28.2166 63.4509 28.9078C63.6625 29.592 63.7683 30.4912 63.7683 31.6056H61.737C61.737 30.7663 61.663 30.1139 61.5149 29.6484C61.3667 29.1758 61.0881 28.8373 60.6791 28.6327C60.27 28.4211 59.674 28.2907 58.8911 28.2413C58.1152 28.1919 57.0961 28.1672 55.8335 28.1672H51.8556C50.847 28.1672 49.9971 28.199 49.3059 28.2624C48.6146 28.3189 48.0504 28.4564 47.6131 28.6751C47.1829 28.8866 46.8514 29.2252 46.6186 29.6907C46.3929 30.1562 46.2377 30.791 46.1531 31.5951C46.0685 32.3991 46.0261 33.4218 46.0261 34.6632V35.0864C46.0261 36.2854 46.0685 37.2799 46.1531 38.0698C46.2377 38.8598 46.3929 39.4911 46.6186 39.9636C46.8514 40.4362 47.1829 40.7888 47.6131 41.0216C48.0504 41.2543 48.6146 41.406 49.3059 41.4765C49.9971 41.5471 50.847 41.5823 51.8556 41.5823H56.5424C57.7062 41.5823 58.6442 41.5365 59.3566 41.4448C60.069 41.346 60.6085 41.1415 60.9753 40.8312C61.3491 40.5138 61.5995 40.0341 61.7265 39.3923C61.8534 38.7434 61.9169 37.8688 61.9169 36.7685V36.1443H54.1408V34.4516H63.9482V36.7685C63.9482 38.1439 63.8318 39.2618 63.5991 40.1223C63.3663 40.9828 62.9713 41.6493 62.4141 42.1219C61.864 42.5874 61.1093 42.9048 60.1501 43.0741C59.1979 43.2504 57.9953 43.3386 56.5424 43.3386H51.8556C50.2686 43.3386 48.9638 43.2292 47.9411 43.0106C46.9184 42.799 46.1178 42.404 45.5395 41.8257C44.9682 41.2473 44.5661 40.415 44.3334 39.3288C44.1077 38.2426 43.9948 36.8285 43.9948 35.0864ZM67.0646 43V26.7495H83.0188V28.4423H69.0959V33.8591H82.4369V35.5519H69.0959V41.3072H83.315V43H67.0646ZM85.3734 43V26.7495H87.4894L103.814 40.4926H103.835V26.7495H105.866V43H103.75L87.4259 29.1406H87.4047V43H85.3734ZM109.29 43V26.7495H111.321V43H109.29ZM122.002 43.3386C120.415 43.3386 119.11 43.2292 118.087 43.0106C117.064 42.799 116.264 42.404 115.686 41.8257C115.114 41.2473 114.712 40.415 114.48 39.3288C114.254 38.2426 114.141 36.8285 114.141 35.0864V26.7495H116.172V35.0864C116.172 36.2854 116.215 37.2799 116.299 38.0698C116.384 38.8598 116.543 39.4911 116.775 39.9636C117.008 40.4362 117.34 40.7888 117.77 41.0216C118.207 41.2543 118.771 41.406 119.463 41.4765C120.154 41.5471 121 41.5823 122.002 41.5823H125.832C126.84 41.5823 127.687 41.5471 128.371 41.4765C129.062 41.406 129.623 41.2543 130.053 41.0216C130.49 40.7888 130.825 40.4362 131.058 39.9636C131.291 39.4911 131.449 38.8598 131.534 38.0698C131.619 37.2799 131.661 36.2854 131.661 35.0864V26.7495H133.692V35.0864C133.692 36.8285 133.576 38.2426 133.343 39.3288C133.117 40.415 132.715 41.2473 132.137 41.8257C131.566 42.404 130.769 42.799 129.746 43.0106C128.723 43.2292 127.419 43.3386 125.832 43.3386H122.002ZM153.81 38.3026C153.81 37.6749 153.761 37.1812 153.662 36.8214C153.563 36.4617 153.341 36.1972 152.996 36.028C152.65 35.8516 152.114 35.7388 151.388 35.6894C150.661 35.633 149.667 35.5942 148.404 35.573L142.522 35.4884C141.069 35.4672 139.901 35.3791 139.02 35.2239C138.138 35.0687 137.472 34.8254 137.02 34.4939C136.569 34.1553 136.266 33.7039 136.11 33.1397C135.962 32.5754 135.888 31.8701 135.888 31.0237C135.888 30.0998 135.99 29.338 136.195 28.7385C136.407 28.139 136.784 27.67 137.327 27.3314C137.877 26.9929 138.653 26.7566 139.655 26.6226C140.656 26.4815 141.95 26.411 143.537 26.411H148.065C149.504 26.411 150.703 26.4568 151.663 26.5485C152.622 26.6402 153.384 26.8518 153.948 27.1833C154.512 27.5148 154.914 28.0297 155.154 28.7279C155.401 29.4262 155.524 30.3854 155.524 31.6056H153.493C153.493 30.6605 153.401 29.9481 153.218 29.4685C153.041 28.9819 152.745 28.6504 152.329 28.474C151.92 28.2977 151.366 28.2025 150.668 28.1884C149.97 28.1743 149.102 28.1672 148.065 28.1672H143.643C142.381 28.1672 141.369 28.1919 140.607 28.2413C139.852 28.2907 139.281 28.4035 138.893 28.5798C138.505 28.7562 138.244 29.0383 138.11 29.4262C137.983 29.8141 137.92 30.3466 137.92 31.0237C137.92 31.5951 137.965 32.0535 138.057 32.3991C138.149 32.7447 138.353 33.0092 138.671 33.1926C138.995 33.3689 139.492 33.4924 140.162 33.5629C140.832 33.6264 141.746 33.6652 142.903 33.6793L149.208 33.7639C150.689 33.7851 151.871 33.8732 152.752 34.0284C153.641 34.1765 154.304 34.4198 154.741 34.7584C155.186 35.0969 155.478 35.5554 155.619 36.1338C155.768 36.7051 155.842 37.428 155.842 38.3026C155.842 39.2548 155.75 40.0553 155.567 40.7042C155.39 41.346 155.045 41.8609 154.53 42.2488C154.015 42.6368 153.271 42.9154 152.297 43.0846C151.324 43.2539 150.044 43.3386 148.457 43.3386H143.506C142.06 43.3386 140.847 43.2751 139.866 43.1481C138.886 43.0212 138.103 42.7672 137.517 42.3864C136.939 41.9985 136.523 41.4236 136.269 40.6619C136.015 39.9001 135.888 38.8845 135.888 37.6149H137.92C137.92 38.6094 138.001 39.3782 138.163 39.9213C138.325 40.4644 138.607 40.8558 139.009 41.0956C139.418 41.3284 139.986 41.4695 140.713 41.5188C141.446 41.5612 142.377 41.5823 143.506 41.5823H148.351C149.614 41.5823 150.612 41.5435 151.345 41.4659C152.079 41.3813 152.622 41.2261 152.974 41.0004C153.327 40.7677 153.553 40.4362 153.652 40.0059C153.757 39.5757 153.81 39.0079 153.81 38.3026Z"/>
</mask>
<path d="M51.7603 21V6.4423H43.6351V4.74954H61.9169V6.4423H53.7917V21H51.7603ZM64.2927 21V4.74954H80.2469V6.4423H66.324V11.8591H79.665V13.5519H66.324V19.3072H80.5431V21H64.2927ZM81.9244 13.0864V12.6632C81.9244 11.2243 81.9949 10.0182 82.136 9.04491C82.2771 8.06452 82.5204 7.26751 82.866 6.65389C83.2116 6.04027 83.6807 5.57123 84.2731 5.24679C84.8726 4.92234 85.6238 4.70369 86.5266 4.59084C87.4294 4.47094 88.5156 4.41099 89.7852 4.41099H94.0488C95.5017 4.41099 96.7255 4.48152 97.72 4.62258C98.7215 4.75659 99.5256 5.02814 100.132 5.43722C100.746 5.83925 101.19 6.43524 101.465 7.2252C101.74 8.0081 101.878 9.04844 101.878 10.3462H99.8465C99.8465 9.32351 99.7548 8.53003 99.5714 7.96578C99.388 7.39447 99.0777 6.98186 98.6404 6.72795C98.2101 6.47404 97.6212 6.31887 96.8736 6.26244C96.1259 6.19896 95.1843 6.16722 94.0488 6.16722H89.7852C88.7766 6.16722 87.9266 6.19896 87.2354 6.26244C86.5442 6.31887 85.98 6.4564 85.5427 6.67505C85.1124 6.88664 84.7809 7.2252 84.5482 7.6907C84.3225 8.15621 84.1673 8.791 84.0827 9.59505C83.998 10.3991 83.9557 11.4218 83.9557 12.6632V13.0864C83.9557 14.2854 83.998 15.2799 84.0827 16.0698C84.1673 16.8598 84.3225 17.4911 84.5482 17.9636C84.7809 18.4362 85.1124 18.7888 85.5427 19.0216C85.98 19.2543 86.5442 19.406 87.2354 19.4765C87.9266 19.5471 88.7766 19.5823 89.7852 19.5823H94.0488C95.1843 19.5823 96.1259 19.5576 96.8736 19.5083C97.6212 19.4589 98.2101 19.3143 98.6404 19.0745C99.0777 18.8347 99.388 18.4362 99.5714 17.879C99.7548 17.3147 99.8465 16.5248 99.8465 15.5091H101.878C101.878 16.8069 101.74 17.8437 101.465 18.6196C101.19 19.3954 100.746 19.9808 100.132 20.3758C99.5256 20.7637 98.7215 21.0212 97.72 21.1481C96.7255 21.2751 95.5017 21.3386 94.0488 21.3386H89.7852C88.1982 21.3386 86.8934 21.2292 85.8707 21.0106C84.8479 20.799 84.0474 20.404 83.4691 19.8257C82.8978 19.2473 82.4957 18.415 82.263 17.3288C82.0373 16.2426 81.9244 14.8285 81.9244 13.0864ZM104.698 21V4.74954H106.729V11.8591H121.625V4.74954H123.657V21H121.625V13.5519H106.729V21H104.698ZM127.112 21V4.74954H129.228L145.552 18.4926H145.573V4.74954H147.605V21H145.489L129.164 7.14056H129.143V21H127.112ZM158.211 21.3386C156.624 21.3386 155.32 21.2292 154.297 21.0106C153.274 20.799 152.474 20.404 151.895 19.8257C151.324 19.2473 150.922 18.415 150.689 17.3288C150.464 16.2426 150.351 14.8285 150.351 13.0864V12.6632C150.351 11.2243 150.421 10.0182 150.562 9.04491C150.703 8.06452 150.947 7.26751 151.292 6.65389C151.638 6.04027 152.107 5.57123 152.699 5.24679C153.299 4.92234 154.05 4.70369 154.953 4.59084C155.856 4.47094 156.942 4.41099 158.211 4.41099H162.475C163.745 4.41099 164.831 4.47094 165.734 4.59084C166.636 4.70369 167.384 4.92234 167.977 5.24679C168.576 5.57123 169.049 6.04027 169.394 6.65389C169.74 7.26751 169.983 8.06452 170.124 9.04491C170.265 10.0182 170.336 11.2243 170.336 12.6632V13.0864C170.336 14.8285 170.219 16.2426 169.987 17.3288C169.761 18.415 169.359 19.2473 168.781 19.8257C168.209 20.404 167.412 20.799 166.39 21.0106C165.367 21.2292 164.062 21.3386 162.475 21.3386H158.211ZM158.211 19.5823H162.475C163.484 19.5823 164.334 19.5471 165.025 19.4765C165.716 19.406 166.277 19.2543 166.707 19.0216C167.144 18.7888 167.476 18.4362 167.701 17.9636C167.934 17.4911 168.093 16.8598 168.178 16.0698C168.262 15.2799 168.304 14.2854 168.304 13.0864V12.6632C168.304 11.4218 168.262 10.3991 168.178 9.59505C168.093 8.791 167.934 8.15621 167.701 7.6907C167.476 7.2252 167.144 6.88664 166.707 6.67505C166.277 6.4564 165.716 6.31887 165.025 6.26244C164.334 6.19896 163.484 6.16722 162.475 6.16722H158.211C157.203 6.16722 156.353 6.19896 155.662 6.26244C154.971 6.31887 154.406 6.4564 153.969 6.67505C153.539 6.88664 153.207 7.2252 152.974 7.6907C152.749 8.15621 152.594 8.791 152.509 9.59505C152.424 10.3991 152.382 11.4218 152.382 12.6632V13.0864C152.382 14.2854 152.424 15.2799 152.509 16.0698C152.594 16.8598 152.749 17.4911 152.974 17.9636C153.207 18.4362 153.539 18.7888 153.969 19.0216C154.406 19.2543 154.971 19.406 155.662 19.4765C156.353 19.5471 157.203 19.5823 158.211 19.5823ZM177.235 21L186.714 4.74954H189.423L198.902 21H196.532L194.501 17.2759H181.636L179.605 21H177.235ZM182.652 15.5832H193.486L188.069 6.10374L182.652 15.5832ZM200.961 21V4.74954H202.992V21H200.961ZM43.9948 35.0864V34.6632C43.9948 33.2243 44.0654 32.0182 44.2064 31.0449C44.3475 30.0645 44.5908 29.2675 44.9364 28.6539C45.282 28.0403 45.7511 27.5712 46.3435 27.2468C46.943 26.9223 47.6942 26.7037 48.597 26.5908C49.4998 26.4709 50.586 26.411 51.8556 26.411H55.8335C57.4981 26.411 58.8488 26.4745 59.8856 26.6014C60.9294 26.7284 61.73 26.9717 62.2872 27.3314C62.8514 27.6911 63.2394 28.2166 63.4509 28.9078C63.6625 29.592 63.7683 30.4912 63.7683 31.6056H61.737C61.737 30.7663 61.663 30.1139 61.5149 29.6484C61.3667 29.1758 61.0881 28.8373 60.6791 28.6327C60.27 28.4211 59.674 28.2907 58.8911 28.2413C58.1152 28.1919 57.0961 28.1672 55.8335 28.1672H51.8556C50.847 28.1672 49.9971 28.199 49.3059 28.2624C48.6146 28.3189 48.0504 28.4564 47.6131 28.6751C47.1829 28.8866 46.8514 29.2252 46.6186 29.6907C46.3929 30.1562 46.2377 30.791 46.1531 31.5951C46.0685 32.3991 46.0261 33.4218 46.0261 34.6632V35.0864C46.0261 36.2854 46.0685 37.2799 46.1531 38.0698C46.2377 38.8598 46.3929 39.4911 46.6186 39.9636C46.8514 40.4362 47.1829 40.7888 47.6131 41.0216C48.0504 41.2543 48.6146 41.406 49.3059 41.4765C49.9971 41.5471 50.847 41.5823 51.8556 41.5823H56.5424C57.7062 41.5823 58.6442 41.5365 59.3566 41.4448C60.069 41.346 60.6085 41.1415 60.9753 40.8312C61.3491 40.5138 61.5995 40.0341 61.7265 39.3923C61.8534 38.7434 61.9169 37.8688 61.9169 36.7685V36.1443H54.1408V34.4516H63.9482V36.7685C63.9482 38.1439 63.8318 39.2618 63.5991 40.1223C63.3663 40.9828 62.9713 41.6493 62.4141 42.1219C61.864 42.5874 61.1093 42.9048 60.1501 43.0741C59.1979 43.2504 57.9953 43.3386 56.5424 43.3386H51.8556C50.2686 43.3386 48.9638 43.2292 47.9411 43.0106C46.9184 42.799 46.1178 42.404 45.5395 41.8257C44.9682 41.2473 44.5661 40.415 44.3334 39.3288C44.1077 38.2426 43.9948 36.8285 43.9948 35.0864ZM67.0646 43V26.7495H83.0188V28.4423H69.0959V33.8591H82.4369V35.5519H69.0959V41.3072H83.315V43H67.0646ZM85.3734 43V26.7495H87.4894L103.814 40.4926H103.835V26.7495H105.866V43H103.75L87.4259 29.1406H87.4047V43H85.3734ZM109.29 43V26.7495H111.321V43H109.29ZM122.002 43.3386C120.415 43.3386 119.11 43.2292 118.087 43.0106C117.064 42.799 116.264 42.404 115.686 41.8257C115.114 41.2473 114.712 40.415 114.48 39.3288C114.254 38.2426 114.141 36.8285 114.141 35.0864V26.7495H116.172V35.0864C116.172 36.2854 116.215 37.2799 116.299 38.0698C116.384 38.8598 116.543 39.4911 116.775 39.9636C117.008 40.4362 117.34 40.7888 117.77 41.0216C118.207 41.2543 118.771 41.406 119.463 41.4765C120.154 41.5471 121 41.5823 122.002 41.5823H125.832C126.84 41.5823 127.687 41.5471 128.371 41.4765C129.062 41.406 129.623 41.2543 130.053 41.0216C130.49 40.7888 130.825 40.4362 131.058 39.9636C131.291 39.4911 131.449 38.8598 131.534 38.0698C131.619 37.2799 131.661 36.2854 131.661 35.0864V26.7495H133.692V35.0864C133.692 36.8285 133.576 38.2426 133.343 39.3288C133.117 40.415 132.715 41.2473 132.137 41.8257C131.566 42.404 130.769 42.799 129.746 43.0106C128.723 43.2292 127.419 43.3386 125.832 43.3386H122.002ZM153.81 38.3026C153.81 37.6749 153.761 37.1812 153.662 36.8214C153.563 36.4617 153.341 36.1972 152.996 36.028C152.65 35.8516 152.114 35.7388 151.388 35.6894C150.661 35.633 149.667 35.5942 148.404 35.573L142.522 35.4884C141.069 35.4672 139.901 35.3791 139.02 35.2239C138.138 35.0687 137.472 34.8254 137.02 34.4939C136.569 34.1553 136.266 33.7039 136.11 33.1397C135.962 32.5754 135.888 31.8701 135.888 31.0237C135.888 30.0998 135.99 29.338 136.195 28.7385C136.407 28.139 136.784 27.67 137.327 27.3314C137.877 26.9929 138.653 26.7566 139.655 26.6226C140.656 26.4815 141.95 26.411 143.537 26.411H148.065C149.504 26.411 150.703 26.4568 151.663 26.5485C152.622 26.6402 153.384 26.8518 153.948 27.1833C154.512 27.5148 154.914 28.0297 155.154 28.7279C155.401 29.4262 155.524 30.3854 155.524 31.6056H153.493C153.493 30.6605 153.401 29.9481 153.218 29.4685C153.041 28.9819 152.745 28.6504 152.329 28.474C151.92 28.2977 151.366 28.2025 150.668 28.1884C149.97 28.1743 149.102 28.1672 148.065 28.1672H143.643C142.381 28.1672 141.369 28.1919 140.607 28.2413C139.852 28.2907 139.281 28.4035 138.893 28.5798C138.505 28.7562 138.244 29.0383 138.11 29.4262C137.983 29.8141 137.92 30.3466 137.92 31.0237C137.92 31.5951 137.965 32.0535 138.057 32.3991C138.149 32.7447 138.353 33.0092 138.671 33.1926C138.995 33.3689 139.492 33.4924 140.162 33.5629C140.832 33.6264 141.746 33.6652 142.903 33.6793L149.208 33.7639C150.689 33.7851 151.871 33.8732 152.752 34.0284C153.641 34.1765 154.304 34.4198 154.741 34.7584C155.186 35.0969 155.478 35.5554 155.619 36.1338C155.768 36.7051 155.842 37.428 155.842 38.3026C155.842 39.2548 155.75 40.0553 155.567 40.7042C155.39 41.346 155.045 41.8609 154.53 42.2488C154.015 42.6368 153.271 42.9154 152.297 43.0846C151.324 43.2539 150.044 43.3386 148.457 43.3386H143.506C142.06 43.3386 140.847 43.2751 139.866 43.1481C138.886 43.0212 138.103 42.7672 137.517 42.3864C136.939 41.9985 136.523 41.4236 136.269 40.6619C136.015 39.9001 135.888 38.8845 135.888 37.6149H137.92C137.92 38.6094 138.001 39.3782 138.163 39.9213C138.325 40.4644 138.607 40.8558 139.009 41.0956C139.418 41.3284 139.986 41.4695 140.713 41.5188C141.446 41.5612 142.377 41.5823 143.506 41.5823H148.351C149.614 41.5823 150.612 41.5435 151.345 41.4659C152.079 41.3813 152.622 41.2261 152.974 41.0004C153.327 40.7677 153.553 40.4362 153.652 40.0059C153.757 39.5757 153.81 39.0079 153.81 38.3026Z" fill="white"/>
<path d="M51.7603 21H51.168V21.5923H51.7603V21ZM51.7603 6.4423H52.3527V5.84999H51.7603V6.4423ZM43.6351 6.4423H43.0428V7.0346H43.6351V6.4423ZM43.6351 4.74954V4.15723H43.0428V4.74954H43.6351ZM61.9169 4.74954H62.5092V4.15723H61.9169V4.74954ZM61.9169 6.4423V7.0346H62.5092V6.4423H61.9169ZM53.7917 6.4423V5.84999H53.1993V6.4423H53.7917ZM53.7917 21V21.5923H54.384V21H53.7917ZM51.7603 21H52.3527V6.4423H51.7603H51.168V21H51.7603ZM51.7603 6.4423V5.84999H43.6351V6.4423V7.0346H51.7603V6.4423ZM43.6351 6.4423H44.2274V4.74954H43.6351H43.0428V6.4423H43.6351ZM43.6351 4.74954V5.34185H61.9169V4.74954V4.15723H43.6351V4.74954ZM61.9169 4.74954H61.3246V6.4423H61.9169H62.5092V4.74954H61.9169ZM61.9169 6.4423V5.84999H53.7917V6.4423V7.0346H61.9169V6.4423ZM53.7917 6.4423H53.1993V21H53.7917H54.384V6.4423H53.7917ZM53.7917 21V20.4077H51.7603V21V21.5923H53.7917V21ZM64.2927 21H63.7004V21.5923H64.2927V21ZM64.2927 4.74954V4.15723H63.7004V4.74954H64.2927ZM80.2469 4.74954H80.8392V4.15723H80.2469V4.74954ZM80.2469 6.4423V7.0346H80.8392V6.4423H80.2469ZM66.324 6.4423V5.84999H65.7317V6.4423H66.324ZM66.324 11.8591H65.7317V12.4514H66.324V11.8591ZM79.665 11.8591H80.2573V11.2668H79.665V11.8591ZM79.665 13.5519V14.1442H80.2573V13.5519H79.665ZM66.324 13.5519V12.9596H65.7317V13.5519H66.324ZM66.324 19.3072H65.7317V19.8996H66.324V19.3072ZM80.5431 19.3072H81.1354V18.7149H80.5431V19.3072ZM80.5431 21V21.5923H81.1354V21H80.5431ZM64.2927 21H64.885V4.74954H64.2927H63.7004V21H64.2927ZM64.2927 4.74954V5.34185H80.2469V4.74954V4.15723H64.2927V4.74954ZM80.2469 4.74954H79.6546V6.4423H80.2469H80.8392V4.74954H80.2469ZM80.2469 6.4423V5.84999H66.324V6.4423V7.0346H80.2469V6.4423ZM66.324 6.4423H65.7317V11.8591H66.324H66.9163V6.4423H66.324ZM66.324 11.8591V12.4514H79.665V11.8591V11.2668H66.324V11.8591ZM79.665 11.8591H79.0727V13.5519H79.665H80.2573V11.8591H79.665ZM79.665 13.5519V12.9596H66.324V13.5519V14.1442H79.665V13.5519ZM66.324 13.5519H65.7317V19.3072H66.324H66.9163V13.5519H66.324ZM66.324 19.3072V19.8996H80.5431V19.3072V18.7149H66.324V19.3072ZM80.5431 19.3072H79.9508V21H80.5431H81.1354V19.3072H80.5431ZM80.5431 21V20.4077H64.2927V21V21.5923H80.5431V21ZM82.136 9.04491L82.7222 9.12986L82.7223 9.12926L82.136 9.04491ZM84.2731 5.24679L83.9912 4.72586L83.9886 4.72728L84.2731 5.24679ZM86.5266 4.59084L86.6001 5.1786L86.6046 5.178L86.5266 4.59084ZM97.7199 4.62258L97.6368 5.20904L97.6414 5.20966L97.7199 4.62258ZM100.132 5.43722L99.8009 5.92833L99.8075 5.93266L100.132 5.43722ZM101.465 7.2252L100.906 7.41998L100.906 7.42154L101.465 7.2252ZM101.878 10.3462V10.9385H102.47V10.3462H101.878ZM99.8465 10.3462H99.2542V10.9385H99.8465V10.3462ZM99.5714 7.96578L99.0074 8.1468L99.0081 8.14885L99.5714 7.96578ZM98.6404 6.72795L98.3393 7.23806L98.343 7.24017L98.6404 6.72795ZM96.8736 6.26244L96.8235 6.85265L96.829 6.85307L96.8736 6.26244ZM87.2354 6.26244L87.2836 6.85281L87.2896 6.85227L87.2354 6.26244ZM85.5427 6.67505L85.8041 7.20657L85.8076 7.20483L85.5427 6.67505ZM84.5482 7.6907L84.0184 7.4258L84.0152 7.4323L84.5482 7.6907ZM84.5482 17.9636L84.0137 18.2189L84.0168 18.2253L84.5482 17.9636ZM85.5427 19.0216L85.2608 19.5426L85.2644 19.5444L85.5427 19.0216ZM98.6404 19.0745L98.3556 18.5551L98.352 18.5571L98.6404 19.0745ZM99.5714 17.879L100.134 18.0641L100.135 18.0621L99.5714 17.879ZM99.8465 15.5091V14.9168H99.2542V15.5091H99.8465ZM101.878 15.5091H102.47V14.9168H101.878V15.5091ZM100.132 20.3758L100.451 20.8748L100.453 20.8738L100.132 20.3758ZM97.7199 21.1481L97.6455 20.5605L97.6449 20.5606L97.7199 21.1481ZM85.8707 21.0106L85.9945 20.4313L85.9907 20.4306L85.8707 21.0106ZM83.4691 19.8257L83.0477 20.2419L83.0502 20.2445L83.4691 19.8257ZM82.263 17.3288L81.683 17.4493L81.6838 17.4529L82.263 17.3288ZM81.9244 13.0864H82.5167V12.6632H81.9244H81.3321V13.0864H81.9244ZM81.9244 12.6632H82.5167C82.5167 11.241 82.5866 10.0654 82.7222 9.12986L82.136 9.04491L81.5498 8.95995C81.4033 9.97104 81.3321 11.2076 81.3321 12.6632H81.9244ZM82.136 9.04491L82.7223 9.12926C82.8568 8.19415 83.0839 7.47409 83.3821 6.94456L82.866 6.65389L82.3499 6.36322C81.957 7.06094 81.6973 7.93489 81.5497 8.96055L82.136 9.04491ZM82.866 6.65389L83.3821 6.94456C83.6758 6.42304 84.0665 6.03526 84.5576 5.7663L84.2731 5.24679L83.9886 4.72728C83.2949 5.1072 82.7474 5.65749 82.3499 6.36322L82.866 6.65389ZM84.2731 5.24679L84.555 5.7677C85.0721 5.48785 85.7473 5.28518 86.6001 5.17858L86.5266 4.59084L86.4531 4.00311C85.5003 4.12221 84.6731 4.35683 83.9912 4.72587L84.2731 5.24679ZM86.5266 4.59084L86.6046 5.178C87.4737 5.06257 88.5323 5.0033 89.7852 5.0033V4.41099V3.81868C88.4988 3.81868 87.3851 3.87931 86.4486 4.00369L86.5266 4.59084ZM89.7852 4.41099V5.0033H94.0488V4.41099V3.81868H89.7852V4.41099ZM94.0488 4.41099V5.0033C95.485 5.0033 96.679 5.07317 97.6368 5.20902L97.7199 4.62258L97.8031 4.03615C96.7719 3.88987 95.5184 3.81868 94.0488 3.81868V4.41099ZM97.7199 4.62258L97.6414 5.20966C98.585 5.33592 99.2932 5.58589 99.8009 5.92829L100.132 5.43722L100.463 4.94616C99.7579 4.47039 98.858 4.17727 97.7985 4.03551L97.7199 4.62258ZM100.132 5.43722L99.8075 5.93266C100.297 6.25325 100.667 6.73526 100.906 7.41998L101.465 7.2252L102.025 7.03042C101.713 6.13522 101.195 5.42525 100.457 4.94178L100.132 5.43722ZM101.465 7.2252L100.906 7.42154C101.15 8.11613 101.285 9.08197 101.285 10.3462H101.878H102.47C102.47 9.0149 102.33 7.90006 102.024 7.02885L101.465 7.2252ZM101.878 10.3462V9.75391H99.8465V10.3462V10.9385H101.878V10.3462ZM99.8465 10.3462H100.439C100.439 9.29944 100.346 8.43382 100.135 7.7827L99.5714 7.96578L99.0081 8.14885C99.1632 8.62624 99.2542 9.34758 99.2542 10.3462H99.8465ZM99.5714 7.96578L100.135 7.78475C99.916 7.10141 99.5248 6.55659 98.9378 6.21573L98.6404 6.72795L98.343 7.24017C98.6305 7.40714 98.86 7.68753 99.0074 8.1468L99.5714 7.96578ZM98.6404 6.72795L98.9414 6.21785C98.4037 5.90051 97.7149 5.73194 96.9181 5.67181L96.8736 6.26244L96.829 6.85307C97.5276 6.90579 98.0166 7.04757 98.3393 7.23805L98.6404 6.72795ZM96.8736 6.26244L96.9237 5.67226C96.1533 5.60684 95.1935 5.57492 94.0488 5.57492V6.16722V6.75953C95.1752 6.75953 96.0986 6.79108 96.8235 6.85262L96.8736 6.26244ZM94.0488 6.16722V5.57492H89.7852V6.16722V6.75953H94.0488V6.16722ZM89.7852 6.16722V5.57492C88.7658 5.57492 87.8965 5.60693 87.1813 5.67262L87.2354 6.26244L87.2896 6.85227C87.9568 6.791 88.7873 6.75953 89.7852 6.75953V6.16722ZM87.2354 6.26244L87.1872 5.6721C86.4497 5.7323 85.8048 5.88178 85.2778 6.14527L85.5427 6.67505L85.8076 7.20483C86.1552 7.03102 86.6387 6.90543 87.2836 6.85279L87.2354 6.26244ZM85.5427 6.67505L85.2813 6.14354C84.7247 6.41726 84.3038 6.855 84.0184 7.42582L84.5482 7.6907L85.078 7.95559C85.2581 7.5954 85.5002 7.35603 85.8041 7.20656L85.5427 6.67505ZM84.5482 7.6907L84.0152 7.4323C83.7476 7.9842 83.5819 8.69476 83.4936 9.53305L84.0827 9.59505L84.6717 9.65706C84.7528 8.88723 84.8973 8.32822 85.0812 7.94911L84.5482 7.6907ZM84.0827 9.59505L83.4936 9.53305C83.406 10.3655 83.3634 11.4108 83.3634 12.6632H83.9557H84.548C84.548 11.4328 84.5901 10.4327 84.6717 9.65706L84.0827 9.59505ZM83.9557 12.6632H83.3634V13.0864H83.9557H84.548V12.6632H83.9557ZM83.9557 13.0864H83.3634C83.3634 14.297 83.406 15.3144 83.4937 16.1329L84.0827 16.0698L84.6716 16.0067C84.59 15.2454 84.548 14.2738 84.548 13.0864H83.9557ZM84.0827 16.0698L83.4937 16.1329C83.5822 16.9587 83.7482 17.663 84.0137 18.2189L84.5482 17.9636L85.0827 17.7083C84.8967 17.3191 84.7524 16.7609 84.6716 16.0067L84.0827 16.0698ZM84.5482 17.9636L84.0168 18.2253C84.2995 18.7992 84.7141 19.2468 85.2609 19.5426L85.5427 19.0216L85.8245 18.5006C85.5108 18.3309 85.2624 18.0732 85.0795 17.7019L84.5482 17.9636ZM85.5427 19.0216L85.2644 19.5444C85.7908 19.8246 86.4363 19.9904 87.1753 20.0658L87.2354 19.4765L87.2956 18.8873C86.6522 18.8216 86.1692 18.6841 85.821 18.4987L85.5427 19.0216ZM87.2354 19.4765L87.1753 20.0658C87.8932 20.139 88.7646 20.1746 89.7852 20.1746V19.5823V18.99C88.7885 18.99 87.9601 18.9551 87.2956 18.8873L87.2354 19.4765ZM89.7852 19.5823V20.1746H94.0488V19.5823V18.99H89.7852V19.5823ZM94.0488 19.5823V20.1746C95.1915 20.1746 96.1472 20.1498 96.9126 20.0993L96.8736 19.5083L96.8345 18.9172C96.1047 18.9654 95.1772 18.99 94.0488 18.99V19.5823ZM96.8736 19.5083L96.9126 20.0993C97.7064 20.0469 98.3924 19.8908 98.9288 19.5919L98.6404 19.0745L98.352 18.5571C98.0279 18.7378 97.536 18.8709 96.8345 18.9172L96.8736 19.5083ZM98.6404 19.0745L98.9252 19.5938C99.5169 19.2694 99.9125 18.7371 100.134 18.0641L99.5714 17.879L99.0088 17.6938C98.8635 18.1352 98.6385 18.4 98.3556 18.5551L98.6404 19.0745ZM99.5714 17.879L100.135 18.0621C100.346 17.4112 100.439 16.5494 100.439 15.5091H99.8465H99.2542C99.2542 16.5002 99.1633 17.2182 99.0081 17.6959L99.5714 17.879ZM99.8465 15.5091V16.1014H101.878V15.5091V14.9168H99.8465V15.5091ZM101.878 15.5091H101.285C101.285 16.7737 101.15 17.7351 100.907 18.4216L101.465 18.6196L102.023 18.8175C102.33 17.9523 102.47 16.8401 102.47 15.5091H101.878ZM101.465 18.6196L100.907 18.4216C100.67 19.0905 100.301 19.5627 99.8115 19.8777L100.132 20.3758L100.453 20.8738C101.191 20.3989 101.71 19.7003 102.023 18.8175L101.465 18.6196ZM100.132 20.3758L99.813 19.8768C99.3039 20.2024 98.5927 20.4404 97.6455 20.5605L97.7199 21.1481L97.7944 21.7357C98.8503 21.6019 99.7472 21.3251 100.451 20.8748L100.132 20.3758ZM97.7199 21.1481L97.6449 20.5606C96.6836 20.6833 95.4867 20.7462 94.0488 20.7462V21.3386V21.9309C95.5167 21.9309 96.7673 21.8668 97.795 21.7357L97.7199 21.1481ZM94.0488 21.3386V20.7462H89.7852V21.3386V21.9309H94.0488V21.3386ZM89.7852 21.3386V20.7462C88.2208 20.7462 86.9614 20.6381 85.9945 20.4314L85.8707 21.0106L85.7468 21.5898C86.8254 21.8204 88.1756 21.9309 89.7852 21.9309V21.3386ZM85.8707 21.0106L85.9907 20.4306C85.05 20.2359 84.3646 19.8835 83.8879 19.4068L83.4691 19.8257L83.0502 20.2445C83.7302 20.9245 84.6459 21.362 85.7507 21.5906L85.8707 21.0106ZM83.4691 19.8257L83.8904 19.4094C83.4226 18.9358 83.0596 18.2196 82.8421 17.2047L82.263 17.3288L81.6838 17.4529C81.9318 18.6104 82.3729 19.5588 83.0477 20.2419L83.4691 19.8257ZM82.263 17.3288L82.8429 17.2083C82.6287 16.1775 82.5167 14.8081 82.5167 13.0864H81.9244H81.3321C81.3321 14.8489 81.4458 16.3078 81.683 17.4493L82.263 17.3288ZM104.698 21H104.106V21.5923H104.698V21ZM104.698 4.74954V4.15723H104.106V4.74954H104.698ZM106.729 4.74954H107.322V4.15723H106.729V4.74954ZM106.729 11.8591H106.137V12.4514H106.729V11.8591ZM121.625 11.8591V12.4514H122.218V11.8591H121.625ZM121.625 4.74954V4.15723H121.033V4.74954H121.625ZM123.657 4.74954H124.249V4.15723H123.657V4.74954ZM123.657 21V21.5923H124.249V21H123.657ZM121.625 21H121.033V21.5923H121.625V21ZM121.625 13.5519H122.218V12.9596H121.625V13.5519ZM106.729 13.5519V12.9596H106.137V13.5519H106.729ZM106.729 21V21.5923H107.322V21H106.729ZM104.698 21H105.29V4.74954H104.698H104.106V21H104.698ZM104.698 4.74954V5.34185H106.729V4.74954V4.15723H104.698V4.74954ZM106.729 4.74954H106.137V11.8591H106.729H107.322V4.74954H106.729ZM106.729 11.8591V12.4514H121.625V11.8591V11.2668H106.729V11.8591ZM121.625 11.8591H122.218V4.74954H121.625H121.033V11.8591H121.625ZM121.625 4.74954V5.34185H123.657V4.74954V4.15723H121.625V4.74954ZM123.657 4.74954H123.064V21H123.657H124.249V4.74954H123.657ZM123.657 21V20.4077H121.625V21V21.5923H123.657V21ZM121.625 21H122.218V13.5519H121.625H121.033V21H121.625ZM121.625 13.5519V12.9596H106.729V13.5519V14.1442H121.625V13.5519ZM106.729 13.5519H106.137V21H106.729H107.322V13.5519H106.729ZM106.729 21V20.4077H104.698V21V21.5923H106.729V21ZM127.112 21H126.519V21.5923H127.112V21ZM127.112 4.74954V4.15723H126.519V4.74954H127.112ZM129.228 4.74954L129.609 4.29642L129.444 4.15723H129.228V4.74954ZM145.552 18.4926L145.171 18.9457L145.336 19.0849H145.552V18.4926ZM145.573 18.4926V19.0849H146.166V18.4926H145.573ZM145.573 4.74954V4.15723H144.981V4.74954H145.573ZM147.605 4.74954H148.197V4.15723H147.605V4.74954ZM147.605 21V21.5923H148.197V21H147.605ZM145.489 21L145.105 21.4515L145.271 21.5923H145.489V21ZM129.164 7.14056L129.548 6.68903L129.382 6.54825H129.164V7.14056ZM129.143 7.14056V6.54825H128.551V7.14056H129.143ZM129.143 21V21.5923H129.735V21H129.143ZM127.112 21H127.704V4.74954H127.112H126.519V21H127.112ZM127.112 4.74954V5.34185H129.228V4.74954V4.15723H127.112V4.74954ZM129.228 4.74954L128.846 5.20266L145.171 18.9457L145.552 18.4926L145.934 18.0395L129.609 4.29642L129.228 4.74954ZM145.552 18.4926V19.0849H145.573V18.4926V17.9003H145.552V18.4926ZM145.573 18.4926H146.166V4.74954H145.573H144.981V18.4926H145.573ZM145.573 4.74954V5.34185H147.605V4.74954V4.15723H145.573V4.74954ZM147.605 4.74954H147.012V21H147.605H148.197V4.74954H147.605ZM147.605 21V20.4077H145.489V21V21.5923H147.605V21ZM145.489 21L145.872 20.5485L129.548 6.68903L129.164 7.14056L128.781 7.59208L145.105 21.4515L145.489 21ZM129.164 7.14056V6.54825H129.143V7.14056V7.73287H129.164V7.14056ZM129.143 7.14056H128.551V21H129.143H129.735V7.14056H129.143ZM129.143 21V20.4077H127.112V21V21.5923H129.143V21ZM154.297 21.0106L154.421 20.4313L154.417 20.4306L154.297 21.0106ZM151.895 19.8257L151.474 20.2419L151.477 20.2445L151.895 19.8257ZM150.689 17.3288L150.109 17.4493L150.11 17.4529L150.689 17.3288ZM150.562 9.04491L151.148 9.12986L151.149 9.12926L150.562 9.04491ZM152.699 5.24679L152.417 4.72586L152.415 4.72728L152.699 5.24679ZM154.953 4.59084L155.026 5.1786L155.031 5.178L154.953 4.59084ZM165.734 4.59084L165.656 5.17801L165.66 5.17858L165.734 4.59084ZM167.977 5.24679L167.692 5.7663L167.695 5.7677L167.977 5.24679ZM170.124 9.04491L169.538 9.12926L169.538 9.12986L170.124 9.04491ZM169.987 17.3288L169.408 17.2047L169.407 17.2083L169.987 17.3288ZM168.781 19.8257L168.362 19.4068L168.359 19.4094L168.781 19.8257ZM166.39 21.0106L166.27 20.4305L166.266 20.4314L166.39 21.0106ZM166.707 19.0216L166.429 18.4987L166.425 18.5006L166.707 19.0216ZM167.701 17.9636L167.17 17.7019L167.167 17.7083L167.701 17.9636ZM167.701 7.6907L167.168 7.94913L167.172 7.95559L167.701 7.6907ZM166.707 6.67505L166.439 7.20318L166.449 7.20822L166.707 6.67505ZM165.025 6.26244L164.971 6.8523L164.977 6.85279L165.025 6.26244ZM155.662 6.26244L155.71 6.85281L155.716 6.85227L155.662 6.26244ZM153.969 6.67505L154.23 7.20657L154.234 7.20483L153.969 6.67505ZM152.974 7.6907L152.445 7.4258L152.442 7.4323L152.974 7.6907ZM152.974 17.9636L152.44 18.2189L152.443 18.2253L152.974 17.9636ZM153.969 19.0216L153.687 19.5426L153.691 19.5444L153.969 19.0216ZM158.211 21.3386V20.7462C156.647 20.7462 155.388 20.6381 154.421 20.4314L154.297 21.0106L154.173 21.5898C155.252 21.8204 156.602 21.9309 158.211 21.9309V21.3386ZM154.297 21.0106L154.417 20.4306C153.476 20.2359 152.791 19.8835 152.314 19.4068L151.895 19.8257L151.477 20.2445C152.157 20.9245 153.072 21.362 154.177 21.5906L154.297 21.0106ZM151.895 19.8257L152.317 19.4094C151.849 18.9358 151.486 18.2196 151.268 17.2047L150.689 17.3288L150.11 17.4529C150.358 18.6104 150.799 19.5588 151.474 20.2419L151.895 19.8257ZM150.689 17.3288L151.269 17.2083C151.055 16.1775 150.943 14.8081 150.943 13.0864H150.351H149.758C149.758 14.8489 149.872 16.3078 150.109 17.4493L150.689 17.3288ZM150.351 13.0864H150.943V12.6632H150.351H149.758V13.0864H150.351ZM150.351 12.6632H150.943C150.943 11.241 151.013 10.0654 151.148 9.12986L150.562 9.04491L149.976 8.95995C149.83 9.97104 149.758 11.2076 149.758 12.6632H150.351ZM150.562 9.04491L151.149 9.12926C151.283 8.19415 151.51 7.47409 151.808 6.94456L151.292 6.65389L150.776 6.36322C150.383 7.06094 150.124 7.93489 149.976 8.96055L150.562 9.04491ZM151.292 6.65389L151.808 6.94456C152.102 6.42304 152.493 6.03526 152.984 5.7663L152.699 5.24679L152.415 4.72728C151.721 5.1072 151.174 5.65749 150.776 6.36322L151.292 6.65389ZM152.699 5.24679L152.981 5.7677C153.498 5.48785 154.174 5.28518 155.026 5.17858L154.953 4.59084L154.879 4.00311C153.927 4.12221 153.099 4.35683 152.417 4.72587L152.699 5.24679ZM154.953 4.59084L155.031 5.178C155.9 5.06257 156.959 5.0033 158.211 5.0033V4.41099V3.81868C156.925 3.81868 155.811 3.87931 154.875 4.00369L154.953 4.59084ZM158.211 4.41099V5.0033H162.475V4.41099V3.81868H158.211V4.41099ZM162.475 4.41099V5.0033C163.728 5.0033 164.787 5.06257 165.656 5.178L165.734 4.59084L165.812 4.00369C164.875 3.87931 163.761 3.81868 162.475 3.81868V4.41099ZM165.734 4.59084L165.66 5.17858C166.513 5.28519 167.183 5.48775 167.692 5.7663L167.977 5.24679L168.261 4.72728C167.585 4.35694 166.76 4.1222 165.807 4.00311L165.734 4.59084ZM167.977 5.24679L167.695 5.7677C168.193 6.03718 168.585 6.42483 168.878 6.94456L169.394 6.65389L169.91 6.36322C169.512 5.6557 168.96 5.10528 168.258 4.72587L167.977 5.24679ZM169.394 6.65389L168.878 6.94456C169.176 7.47409 169.403 8.19415 169.538 9.12926L170.124 9.04491L170.71 8.96055C170.563 7.93489 170.303 7.06094 169.91 6.36322L169.394 6.65389ZM170.124 9.04491L169.538 9.12986C169.674 10.0654 169.743 11.241 169.743 12.6632H170.336H170.928C170.928 11.2076 170.857 9.97104 170.71 8.95995L170.124 9.04491ZM170.336 12.6632H169.743V13.0864H170.336H170.928V12.6632H170.336ZM170.336 13.0864H169.743C169.743 14.8074 169.628 16.1755 169.408 17.2047L169.987 17.3288L170.566 17.4529C170.811 16.3098 170.928 14.8495 170.928 13.0864H170.336ZM169.987 17.3288L169.407 17.2083C169.196 18.2207 168.834 18.9344 168.362 19.4068L168.781 19.8257L169.199 20.2445C169.884 19.5602 170.326 18.6094 170.567 17.4493L169.987 17.3288ZM168.781 19.8257L168.359 19.4094C167.89 19.8839 167.21 20.2359 166.27 20.4306L166.39 21.0106L166.51 21.5906C167.614 21.362 168.528 20.9241 169.202 20.2419L168.781 19.8257ZM166.39 21.0106L166.266 20.4314C165.299 20.6381 164.039 20.7462 162.475 20.7462V21.3386V21.9309C164.085 21.9309 165.435 21.8204 166.513 21.5898L166.39 21.0106ZM162.475 21.3386V20.7462H158.211V21.3386V21.9309H162.475V21.3386ZM158.211 19.5823V20.1746H162.475V19.5823V18.99H158.211V19.5823ZM162.475 19.5823V20.1746C163.496 20.1746 164.367 20.139 165.085 20.0658L165.025 19.4765L164.965 18.8873C164.3 18.9551 163.472 18.99 162.475 18.99V19.5823ZM165.025 19.4765L165.085 20.0658C165.824 19.9904 166.467 19.8246 166.989 19.5426L166.707 19.0216L166.425 18.5006C166.086 18.6841 165.608 18.8216 164.965 18.8873L165.025 19.4765ZM166.707 19.0216L166.985 19.5444C167.541 19.2487 167.959 18.7988 168.236 18.2189L167.701 17.9636L167.167 17.7083C166.993 18.0736 166.748 18.329 166.429 18.4987L166.707 19.0216ZM167.701 17.9636L168.233 18.2253C168.508 17.6672 168.678 16.9604 168.766 16.1329L168.178 16.0698L167.589 16.0067C167.508 16.7592 167.361 17.3149 167.17 17.7019L167.701 17.9636ZM168.178 16.0698L168.766 16.1329C168.854 15.3144 168.897 14.297 168.897 13.0864H168.304H167.712C167.712 14.2738 167.67 15.2454 167.589 16.0067L168.178 16.0698ZM168.304 13.0864H168.897V12.6632H168.304H167.712V13.0864H168.304ZM168.304 12.6632H168.897C168.897 11.4108 168.854 10.3655 168.767 9.53305L168.178 9.59505L167.588 9.65706C167.67 10.4327 167.712 11.4328 167.712 12.6632H168.304ZM168.178 9.59505L168.767 9.53305C168.678 8.6931 168.508 7.97999 168.231 7.42582L167.701 7.6907L167.172 7.95559C167.36 8.33243 167.508 8.88889 167.588 9.65706L168.178 9.59505ZM167.701 7.6907L168.234 7.4323C167.955 6.85522 167.53 6.41543 166.965 6.14188L166.707 6.67505L166.449 7.20822C166.758 7.35786 166.997 7.59517 167.168 7.94911L167.701 7.6907ZM166.707 6.67505L166.975 6.14702C166.453 5.88178 165.81 5.73227 165.073 5.6721L165.025 6.26244L164.977 6.85279C165.622 6.90546 166.1 7.03103 166.439 7.20308L166.707 6.67505ZM165.025 6.26244L165.079 5.67262C164.364 5.60693 163.494 5.57492 162.475 5.57492V6.16722V6.75953C163.473 6.75953 164.303 6.791 164.971 6.85227L165.025 6.26244ZM162.475 6.16722V5.57492H158.211V6.16722V6.75953H162.475V6.16722ZM158.211 6.16722V5.57492C157.192 5.57492 156.323 5.60693 155.608 5.67262L155.662 6.26244L155.716 6.85227C156.383 6.791 157.214 6.75953 158.211 6.75953V6.16722ZM155.662 6.26244L155.614 5.6721C154.876 5.7323 154.231 5.88178 153.704 6.14527L153.969 6.67505L154.234 7.20483C154.581 7.03102 155.065 6.90543 155.71 6.85279L155.662 6.26244ZM153.969 6.67505L153.708 6.14354C153.151 6.41726 152.73 6.855 152.445 7.42582L152.974 7.6907L153.504 7.95559C153.684 7.5954 153.926 7.35603 154.23 7.20656L153.969 6.67505ZM152.974 7.6907L152.442 7.4323C152.174 7.9842 152.008 8.69476 151.92 9.53305L152.509 9.59505L153.098 9.65706C153.179 8.88723 153.324 8.32822 153.507 7.94911L152.974 7.6907ZM152.509 9.59505L151.92 9.53305C151.832 10.3655 151.79 11.4108 151.79 12.6632H152.382H152.974C152.974 11.4328 153.016 10.4327 153.098 9.65706L152.509 9.59505ZM152.382 12.6632H151.79V13.0864H152.382H152.974V12.6632H152.382ZM152.382 13.0864H151.79C151.79 14.297 151.832 15.3144 151.92 16.1329L152.509 16.0698L153.098 16.0067C153.016 15.2454 152.974 14.2738 152.974 13.0864H152.382ZM152.509 16.0698L151.92 16.1329C152.009 16.9587 152.175 17.663 152.44 18.2189L152.974 17.9636L153.509 17.7083C153.323 17.3191 153.179 16.7609 153.098 16.0067L152.509 16.0698ZM152.974 17.9636L152.443 18.2253C152.726 18.7992 153.14 19.2468 153.687 19.5426L153.969 19.0216L154.251 18.5006C153.937 18.3309 153.689 18.0732 153.506 17.7019L152.974 17.9636ZM153.969 19.0216L153.691 19.5444C154.217 19.8246 154.863 19.9904 155.602 20.0658L155.662 19.4765L155.722 18.8873C155.078 18.8216 154.595 18.6841 154.247 18.4987L153.969 19.0216ZM155.662 19.4765L155.602 20.0658C156.319 20.139 157.191 20.1746 158.211 20.1746V19.5823V18.99C157.215 18.99 156.386 18.9551 155.722 18.8873L155.662 19.4765ZM177.235 21L176.723 20.7016L176.204 21.5923H177.235V21ZM186.714 4.74954V4.15723H186.374L186.203 4.45109L186.714 4.74954ZM189.423 4.74954L189.935 4.45109L189.763 4.15723H189.423V4.74954ZM198.902 21V21.5923H199.934L199.414 20.7016L198.902 21ZM196.532 21L196.012 21.2836L196.181 21.5923H196.532V21ZM194.501 17.2759L195.021 16.9923L194.853 16.6836H194.501V17.2759ZM181.636 17.2759V16.6836H181.285L181.116 16.9923L181.636 17.2759ZM179.605 21V21.5923H179.957L180.125 21.2836L179.605 21ZM182.652 15.5832L182.138 15.2893L181.631 16.1755H182.652V15.5832ZM193.486 15.5832V16.1755H194.506L194 15.2893L193.486 15.5832ZM188.069 6.10374L188.583 5.80988L188.069 4.90991L187.554 5.80988L188.069 6.10374ZM177.235 21L177.747 21.2984L187.226 5.04799L186.714 4.74954L186.203 4.45109L176.723 20.7016L177.235 21ZM186.714 4.74954V5.34185H189.423V4.74954V4.15723H186.714V4.74954ZM189.423 4.74954L188.911 5.04799L198.391 21.2984L198.902 21L199.414 20.7016L189.935 4.45109L189.423 4.74954ZM198.902 21V20.4077H196.532V21V21.5923H198.902V21ZM196.532 21L197.052 20.7164L195.021 16.9923L194.501 17.2759L193.981 17.5596L196.012 21.2836L196.532 21ZM194.501 17.2759V16.6836H181.636V17.2759V17.8682H194.501V17.2759ZM181.636 17.2759L181.116 16.9923L179.085 20.7164L179.605 21L180.125 21.2836L182.156 17.5596L181.636 17.2759ZM179.605 21V20.4077H177.235V21V21.5923H179.605V21ZM182.652 15.5832V16.1755H193.486V15.5832V14.9909H182.652V15.5832ZM193.486 15.5832L194 15.2893L188.583 5.80988L188.069 6.10374L187.554 6.39761L192.971 15.877L193.486 15.5832ZM188.069 6.10374L187.554 5.80988L182.138 15.2893L182.652 15.5832L183.166 15.877L188.583 6.39761L188.069 6.10374ZM200.961 21H200.368V21.5923H200.961V21ZM200.961 4.74954V4.15723H200.368V4.74954H200.961ZM202.992 4.74954H203.584V4.15723H202.992V4.74954ZM202.992 21V21.5923H203.584V21H202.992ZM200.961 21H201.553V4.74954H200.961H200.368V21H200.961ZM200.961 4.74954V5.34185H202.992V4.74954V4.15723H200.961V4.74954ZM202.992 4.74954H202.4V21H202.992H203.584V4.74954H202.992ZM202.992 21V20.4077H200.961V21V21.5923H202.992V21ZM44.2064 31.0449L44.7926 31.1299L44.7927 31.1293L44.2064 31.0449ZM46.3435 27.2468L46.0616 26.7259L46.059 26.7273L46.3435 27.2468ZM48.597 26.5908L48.6705 27.1786L48.675 27.178L48.597 26.5908ZM59.8856 26.6014L59.8136 27.1893L59.8141 27.1894L59.8856 26.6014ZM62.2872 27.3314L61.9659 27.8291L61.9688 27.8309L62.2872 27.3314ZM63.4509 28.9078L62.8846 29.0812L62.8851 29.0828L63.4509 28.9078ZM63.7683 31.6056V32.1979H64.3606V31.6056H63.7683ZM61.737 31.6056H61.1447V32.1979H61.737V31.6056ZM61.5149 29.6484L60.9497 29.8255L60.9504 29.828L61.5149 29.6484ZM60.6791 28.6327L60.4069 29.1589L60.4142 29.1625L60.6791 28.6327ZM58.8911 28.2413L58.8535 28.8324L58.8538 28.8324L58.8911 28.2413ZM49.3059 28.2624L49.354 28.8528L49.36 28.8523L49.3059 28.2624ZM47.6131 28.675L47.8745 29.2066L47.878 29.2048L47.6131 28.675ZM46.6186 29.6907L46.0888 29.4258L46.0856 29.4323L46.6186 29.6907ZM46.6186 39.9636L46.0841 40.2189L46.0872 40.2253L46.6186 39.9636ZM47.6131 41.0216L47.3313 41.5426L47.3348 41.5444L47.6131 41.0216ZM59.3566 41.4448L59.4322 42.0323L59.4379 42.0315L59.3566 41.4448ZM60.9753 40.8312L61.3579 41.2833L61.3587 41.2827L60.9753 40.8312ZM61.7265 39.3923L62.3075 39.5072L62.3077 39.506L61.7265 39.3923ZM61.9169 36.1443H62.5092V35.552H61.9169V36.1443ZM54.1408 36.1443H53.5485V36.7366H54.1408V36.1443ZM54.1408 34.4516V33.8593H53.5485V34.4516H54.1408ZM63.9482 34.4516H64.5405V33.8593H63.9482V34.4516ZM62.4141 42.1219L62.7967 42.574L62.7972 42.5736L62.4141 42.1219ZM60.1501 43.0741L60.0471 42.4907L60.0422 42.4917L60.1501 43.0741ZM47.9411 43.0106L48.0649 42.4314L48.0611 42.4306L47.9411 43.0106ZM45.5395 41.8256L45.1181 42.2419L45.1206 42.2445L45.5395 41.8256ZM44.3334 39.3288L43.7534 39.4493L43.7542 39.4529L44.3334 39.3288ZM43.9948 35.0864H44.5871V34.6632H43.9948H43.4025V35.0864H43.9948ZM43.9948 34.6632H44.5871C44.5871 33.241 44.657 32.0654 44.7926 31.1299L44.2064 31.0449L43.6202 30.96C43.4737 31.971 43.4025 33.2076 43.4025 34.6632H43.9948ZM44.2064 31.0449L44.7927 31.1293C44.9272 30.1941 45.1543 29.4741 45.4525 28.9446L44.9364 28.6539L44.4203 28.3632C44.0274 29.0609 43.7677 29.9349 43.6202 30.9606L44.2064 31.0449ZM44.9364 28.6539L45.4525 28.9446C45.7462 28.423 46.1369 28.0353 46.628 27.7663L46.3435 27.2468L46.059 26.7273C45.3653 27.1072 44.8178 27.6575 44.4203 28.3632L44.9364 28.6539ZM46.3435 27.2468L46.6254 27.7677C47.1426 27.4879 47.8177 27.2852 48.6705 27.1786L48.597 26.5908L48.5235 26.0031C47.5707 26.1222 46.7435 26.3568 46.0616 26.7259L46.3435 27.2468ZM48.597 26.5908L48.675 27.178C49.5441 27.0626 50.6028 27.0033 51.8556 27.0033V26.411V25.8187C50.5692 25.8187 49.4555 25.8793 48.519 26.0037L48.597 26.5908ZM51.8556 26.411V27.0033H55.8335V26.411V25.8187H51.8556V26.411ZM55.8335 26.411V27.0033C57.4863 27.0033 58.8104 27.0665 59.8136 27.1893L59.8856 26.6014L59.9576 26.0135C58.8872 25.8824 57.5098 25.8187 55.8335 25.8187V26.411ZM59.8856 26.6014L59.8141 27.1894C60.8155 27.3112 61.5155 27.5382 61.9659 27.829L62.2872 27.3314L62.6084 26.8338C61.9445 26.4052 61.0434 26.1456 59.9571 26.0134L59.8856 26.6014ZM62.2872 27.3314L61.9688 27.8309C62.4043 28.1085 62.7107 28.513 62.8846 29.0812L63.4509 28.9078L64.0173 28.7344C63.768 27.9202 63.2985 27.2737 62.6056 26.832L62.2872 27.3314ZM63.4509 28.9078L62.8851 29.0828C63.0722 29.6879 63.176 30.5215 63.176 31.6056H63.7683H64.3606C64.3606 30.461 64.2528 29.496 64.0168 28.7328L63.4509 28.9078ZM63.7683 31.6056V31.0133H61.737V31.6056V32.1979H63.7683V31.6056ZM61.737 31.6056H62.3293C62.3293 30.7424 62.2545 30.0195 62.0793 29.4688L61.5149 29.6484L60.9504 29.828C61.0715 30.2083 61.1447 30.7902 61.1447 31.6056H61.737ZM61.5149 29.6484L62.0801 29.4712C61.8883 28.8593 61.5095 28.3858 60.9439 28.103L60.6791 28.6327L60.4142 29.1625C60.6667 29.2888 60.8452 29.4923 60.9497 29.8255L61.5149 29.6484ZM60.6791 28.6327L60.9512 28.1066C60.4351 27.8397 59.7435 27.7016 58.9284 27.6501L58.8911 28.2413L58.8538 28.8324C59.6045 28.8798 60.1048 29.0026 60.4069 29.1588L60.6791 28.6327ZM58.8911 28.2413L58.9287 27.6502C58.1351 27.5997 57.1019 27.5749 55.8335 27.5749V28.1672V28.7595C57.0902 28.7595 58.0954 28.7842 58.8535 28.8324L58.8911 28.2413ZM55.8335 28.1672V27.5749H51.8556V28.1672V28.7595H55.8335V28.1672ZM51.8556 28.1672V27.5749C50.8362 27.5749 49.9669 27.6069 49.2517 27.6726L49.3059 28.2624L49.36 28.8523C50.0272 28.791 50.8577 28.7595 51.8556 28.7595V28.1672ZM49.3059 28.2624L49.2577 27.6721C48.5202 27.7323 47.8752 27.8818 47.3482 28.1453L47.6131 28.675L47.878 29.2048C48.2256 29.031 48.7091 28.9054 49.354 28.8528L49.3059 28.2624ZM47.6131 28.675L47.3517 28.1435C46.7951 28.4173 46.3742 28.855 46.0888 29.4258L46.6186 29.6907L47.1484 29.9556C47.3285 29.5954 47.5706 29.356 47.8745 29.2066L47.6131 28.675ZM46.6186 29.6907L46.0856 29.4323C45.818 29.9842 45.6523 30.6948 45.564 31.533L46.1531 31.5951L46.7421 31.6571C46.8232 30.8872 46.9678 30.3282 47.1516 29.9491L46.6186 29.6907ZM46.1531 31.5951L45.564 31.533C45.4764 32.3655 45.4338 33.4108 45.4338 34.6632H46.0261H46.6184C46.6184 33.4328 46.6605 32.4327 46.7421 31.6571L46.1531 31.5951ZM46.0261 34.6632H45.4338V35.0864H46.0261H46.6184V34.6632H46.0261ZM46.0261 35.0864H45.4338C45.4338 36.297 45.4765 37.3144 45.5642 38.1329L46.1531 38.0698L46.742 38.0067C46.6605 37.2454 46.6184 36.2738 46.6184 35.0864H46.0261ZM46.1531 38.0698L45.5642 38.1329C45.6526 38.9587 45.8186 39.663 46.0841 40.2189L46.6186 39.9636L47.1531 39.7083C46.9672 39.3191 46.8228 38.7609 46.742 38.0067L46.1531 38.0698ZM46.6186 39.9636L46.0872 40.2253C46.3699 40.7992 46.7845 41.2468 47.3313 41.5426L47.6131 41.0216L47.8949 40.5006C47.5812 40.3309 47.3328 40.0732 47.15 39.7019L46.6186 39.9636ZM47.6131 41.0216L47.3348 41.5444C47.8612 41.8246 48.5067 41.9904 49.2457 42.0658L49.3059 41.4765L49.366 40.8873C48.7226 40.8216 48.2396 40.6841 47.8914 40.4987L47.6131 41.0216ZM49.3059 41.4765L49.2457 42.0658C49.9636 42.139 50.835 42.1746 51.8556 42.1746V41.5823V40.99C50.859 40.99 50.0305 40.9551 49.366 40.8873L49.3059 41.4765ZM51.8556 41.5823V42.1746H56.5424V41.5823V40.99H51.8556V41.5823ZM56.5424 41.5823V42.1746C57.718 42.1746 58.6843 42.1285 59.4322 42.0322L59.3566 41.4448L59.281 40.8573C58.6042 40.9444 57.6943 40.99 56.5424 40.99V41.5823ZM59.3566 41.4448L59.4379 42.0315C60.2098 41.9245 60.8729 41.6937 61.3579 41.2833L60.9753 40.8312L60.5927 40.379C60.3442 40.5893 59.9281 40.7676 59.2753 40.8581L59.3566 41.4448ZM60.9753 40.8312L61.3587 41.2827C61.864 40.8536 62.1633 40.2365 62.3075 39.5072L61.7265 39.3923L61.1454 39.2774C61.0357 39.8318 60.8342 40.174 60.5919 40.3796L60.9753 40.8312ZM61.7265 39.3923L62.3077 39.506C62.4452 38.8032 62.5092 37.8855 62.5092 36.7685H61.9169H61.3246C61.3246 37.8522 61.2616 38.6836 61.1452 39.2786L61.7265 39.3923ZM61.9169 36.7685H62.5092V36.1443H61.9169H61.3246V36.7685H61.9169ZM61.9169 36.1443V35.552H54.1408V36.1443V36.7366H61.9169V36.1443ZM54.1408 36.1443H54.7331V34.4516H54.1408H53.5485V36.1443H54.1408ZM54.1408 34.4516V35.0439H63.9482V34.4516V33.8593H54.1408V34.4516ZM63.9482 34.4516H63.3559V36.7685H63.9482H64.5405V34.4516H63.9482ZM63.9482 36.7685H63.3559C63.3559 38.1167 63.2411 39.1771 63.0273 39.9677L63.5991 40.1223L64.1708 40.277C64.4225 39.3466 64.5405 38.1711 64.5405 36.7685H63.9482ZM63.5991 40.1223L63.0273 39.9677C62.8189 40.7381 62.4782 41.2909 62.031 41.6702L62.4141 42.1219L62.7972 42.5736C63.4645 42.0077 63.9137 41.2275 64.1708 40.277L63.5991 40.1223ZM62.4141 42.1219L62.0315 41.6697C61.5847 42.0478 60.9381 42.3335 60.0471 42.4908L60.1501 43.0741L60.253 43.6574C61.2805 43.476 62.1433 43.127 62.7967 42.574L62.4141 42.1219ZM60.1501 43.0741L60.0422 42.4917C59.1385 42.659 57.9752 42.7462 56.5424 42.7462V43.3386V43.9309C58.0155 43.9309 59.2573 43.8418 60.2579 43.6565L60.1501 43.0741ZM56.5424 43.3386V42.7462H51.8556V43.3386V43.9309H56.5424V43.3386ZM51.8556 43.3386V42.7462C50.2912 42.7462 49.0318 42.6381 48.0649 42.4314L47.9411 43.0106L47.8172 43.5898C48.8958 43.8204 50.246 43.9309 51.8556 43.9309V43.3386ZM47.9411 43.0106L48.0611 42.4306C47.1204 42.2359 46.435 41.8835 45.9583 41.4068L45.5395 41.8256L45.1206 42.2445C45.8006 42.9245 46.7163 43.362 47.8211 43.5906L47.9411 43.0106ZM45.5395 41.8256L45.9609 41.4094C45.493 40.9358 45.13 40.2196 44.9125 39.2047L44.3334 39.3288L43.7542 39.4529C44.0023 40.6104 44.4433 41.5588 45.1181 42.2419L45.5395 41.8256ZM44.3334 39.3288L44.9133 39.2083C44.6991 38.1775 44.5871 36.8081 44.5871 35.0864H43.9948H43.4025C43.4025 36.8489 43.5162 38.3078 43.7535 39.4493L44.3334 39.3288ZM67.0646 43H66.4722V43.5923H67.0646V43ZM67.0646 26.7495V26.1572H66.4722V26.7495H67.0646ZM83.0188 26.7495H83.6111V26.1572H83.0188V26.7495ZM83.0188 28.4423V29.0346H83.6111V28.4423H83.0188ZM69.0959 28.4423V27.85H68.5036V28.4423H69.0959ZM69.0959 33.8591H68.5036V34.4514H69.0959V33.8591ZM82.4369 33.8591H83.0292V33.2668H82.4369V33.8591ZM82.4369 35.5519V36.1442H83.0292V35.5519H82.4369ZM69.0959 35.5519V34.9596H68.5036V35.5519H69.0959ZM69.0959 41.3072H68.5036V41.8996H69.0959V41.3072ZM83.315 41.3072H83.9073V40.7149H83.315V41.3072ZM83.315 43V43.5923H83.9073V43H83.315ZM67.0646 43H67.6569V26.7495H67.0646H66.4722V43H67.0646ZM67.0646 26.7495V27.3418H83.0188V26.7495V26.1572H67.0646V26.7495ZM83.0188 26.7495H82.4265V28.4423H83.0188H83.6111V26.7495H83.0188ZM83.0188 28.4423V27.85H69.0959V28.4423V29.0346H83.0188V28.4423ZM69.0959 28.4423H68.5036V33.8591H69.0959H69.6882V28.4423H69.0959ZM69.0959 33.8591V34.4514H82.4369V33.8591V33.2668H69.0959V33.8591ZM82.4369 33.8591H81.8446V35.5519H82.4369H83.0292V33.8591H82.4369ZM82.4369 35.5519V34.9596H69.0959V35.5519V36.1442H82.4369V35.5519ZM69.0959 35.5519H68.5036V41.3072H69.0959H69.6882V35.5519H69.0959ZM69.0959 41.3072V41.8996H83.315V41.3072V40.7149H69.0959V41.3072ZM83.315 41.3072H82.7227V43H83.315H83.9073V41.3072H83.315ZM83.315 43V42.4077H67.0646V43V43.5923H83.315V43ZM85.3734 43H84.7811V43.5923H85.3734V43ZM85.3734 26.7495V26.1572H84.7811V26.7495H85.3734ZM87.4894 26.7495L87.8708 26.2964L87.7055 26.1572H87.4894V26.7495ZM103.814 40.4926L103.432 40.9457L103.598 41.0849H103.814V40.4926ZM103.835 40.4926V41.0849H104.427V40.4926H103.835ZM103.835 26.7495V26.1572H103.243V26.7495H103.835ZM105.866 26.7495H106.459V26.1572H105.866V26.7495ZM105.866 43V43.5923H106.459V43H105.866ZM103.75 43L103.367 43.4515L103.533 43.5923H103.75V43ZM87.4259 29.1406L87.8092 28.689L87.6434 28.5483H87.4259V29.1406ZM87.4047 29.1406V28.5483H86.8124V29.1406H87.4047ZM87.4047 43V43.5923H87.997V43H87.4047ZM85.3734 43H85.9657V26.7495H85.3734H84.7811V43H85.3734ZM85.3734 26.7495V27.3418H87.4894V26.7495V26.1572H85.3734V26.7495ZM87.4894 26.7495L87.1079 27.2027L103.432 40.9457L103.814 40.4926L104.195 40.0395L87.8708 26.2964L87.4894 26.7495ZM103.814 40.4926V41.0849H103.835V40.4926V39.9003H103.814V40.4926ZM103.835 40.4926H104.427V26.7495H103.835H103.243V40.4926H103.835ZM103.835 26.7495V27.3418H105.866V26.7495V26.1572H103.835V26.7495ZM105.866 26.7495H105.274V43H105.866H106.459V26.7495H105.866ZM105.866 43V42.4077H103.75V43V43.5923H105.866V43ZM103.75 43L104.134 42.5485L87.8092 28.689L87.4259 29.1406L87.0425 29.5921L103.367 43.4515L103.75 43ZM87.4259 29.1406V28.5483H87.4047V29.1406V29.7329H87.4259V29.1406ZM87.4047 29.1406H86.8124V43H87.4047H87.997V29.1406H87.4047ZM87.4047 43V42.4077H85.3734V43V43.5923H87.4047V43ZM109.29 43H108.697V43.5923H109.29V43ZM109.29 26.7495V26.1572H108.697V26.7495H109.29ZM111.321 26.7495H111.913V26.1572H111.321V26.7495ZM111.321 43V43.5923H111.913V43H111.321ZM109.29 43H109.882V26.7495H109.29H108.697V43H109.29ZM109.29 26.7495V27.3418H111.321V26.7495V26.1572H109.29V26.7495ZM111.321 26.7495H110.729V43H111.321H111.913V26.7495H111.321ZM111.321 43V42.4077H109.29V43V43.5923H111.321V43ZM118.087 43.0106L118.211 42.4314L118.207 42.4306L118.087 43.0106ZM115.686 41.8256L115.264 42.2419L115.267 42.2445L115.686 41.8256ZM114.48 39.3288L113.9 39.4493L113.9 39.4529L114.48 39.3288ZM114.141 26.7495V26.1572H113.549V26.7495H114.141ZM116.172 26.7495H116.765V26.1572H116.172V26.7495ZM117.77 41.0216L117.488 41.5426L117.492 41.5444L117.77 41.0216ZM128.371 41.4765L128.311 40.8873L128.31 40.8873L128.371 41.4765ZM130.053 41.0216L129.775 40.4987L129.771 40.5006L130.053 41.0216ZM131.661 26.7495V26.1572H131.069V26.7495H131.661ZM133.692 26.7495H134.285V26.1572H133.692V26.7495ZM133.343 39.3288L132.764 39.2047L132.763 39.2083L133.343 39.3288ZM132.137 41.8256L131.718 41.4068L131.716 41.4094L132.137 41.8256ZM129.746 43.0106L129.626 42.4305L129.622 42.4314L129.746 43.0106ZM122.002 43.3386V42.7462C120.437 42.7462 119.178 42.6381 118.211 42.4314L118.087 43.0106L117.963 43.5898C119.042 43.8204 120.392 43.9309 122.002 43.9309V43.3386ZM118.087 43.0106L118.207 42.4306C117.267 42.2359 116.581 41.8835 116.104 41.4068L115.686 41.8256L115.267 42.2445C115.947 42.9245 116.862 43.362 117.967 43.5906L118.087 43.0106ZM115.686 41.8256L116.107 41.4094C115.639 40.9358 115.276 40.2196 115.059 39.2047L114.48 39.3288L113.9 39.4529C114.148 40.6104 114.589 41.5588 115.264 42.2419L115.686 41.8256ZM114.48 39.3288L115.059 39.2083C114.845 38.1775 114.733 36.8081 114.733 35.0864H114.141H113.549C113.549 36.8489 113.662 38.3078 113.9 39.4493L114.48 39.3288ZM114.141 35.0864H114.733V26.7495H114.141H113.549V35.0864H114.141ZM114.141 26.7495V27.3418H116.172V26.7495V26.1572H114.141V26.7495ZM116.172 26.7495H115.58V35.0864H116.172H116.765V26.7495H116.172ZM116.172 35.0864H115.58C115.58 36.297 115.623 37.3144 115.71 38.1329L116.299 38.0698L116.888 38.0067C116.807 37.2454 116.765 36.2738 116.765 35.0864H116.172ZM116.299 38.0698L115.71 38.1329C115.799 38.9604 115.969 39.6672 116.244 40.2253L116.775 39.9636L117.307 39.7019C117.116 39.3149 116.969 38.7592 116.888 38.0067L116.299 38.0698ZM116.775 39.9636L116.244 40.2253C116.527 40.7992 116.941 41.2468 117.488 41.5426L117.77 41.0216L118.052 40.5006C117.738 40.3309 117.49 40.0732 117.307 39.7019L116.775 39.9636ZM117.77 41.0216L117.492 41.5444C118.018 41.8246 118.663 41.9904 119.402 42.0658L119.463 41.4765L119.523 40.8873C118.879 40.8216 118.396 40.6841 118.048 40.4987L117.77 41.0216ZM119.463 41.4765L119.402 42.0658C120.12 42.139 120.988 42.1746 122.002 42.1746V41.5823V40.99C121.012 40.99 120.187 40.9551 119.523 40.8873L119.463 41.4765ZM122.002 41.5823V42.1746H125.832V41.5823V40.99H122.002V41.5823ZM125.832 41.5823V42.1746C126.852 42.1746 127.72 42.139 128.431 42.0657L128.371 41.4765L128.31 40.8873C127.653 40.9551 126.828 40.99 125.832 40.99V41.5823ZM128.371 41.4765L128.431 42.0658C129.17 41.9904 129.813 41.8246 130.335 41.5426L130.053 41.0216L129.771 40.5006C129.432 40.6841 128.954 40.8216 128.311 40.8873L128.371 41.4765ZM130.053 41.0216L130.331 41.5444C130.885 41.2495 131.305 40.8018 131.589 40.2253L131.058 39.9636L130.527 39.7019C130.345 40.0705 130.095 40.3281 129.775 40.4987L130.053 41.0216ZM131.058 39.9636L131.589 40.2253C131.864 39.6672 132.034 38.9604 132.123 38.1329L131.534 38.0698L130.945 38.0067C130.864 38.7592 130.717 39.3149 130.527 39.7019L131.058 39.9636ZM131.534 38.0698L132.123 38.1329C132.211 37.3144 132.253 36.297 132.253 35.0864H131.661H131.069C131.069 36.2738 131.027 37.2454 130.945 38.0067L131.534 38.0698ZM131.661 35.0864H132.253V26.7495H131.661H131.069V35.0864H131.661ZM131.661 26.7495V27.3418H133.692V26.7495V26.1572H131.661V26.7495ZM133.692 26.7495H133.1V35.0864H133.692H134.285V26.7495H133.692ZM133.692 35.0864H133.1C133.1 36.8074 132.985 38.1755 132.764 39.2047L133.343 39.3288L133.922 39.4529C134.167 38.3098 134.285 36.8495 134.285 35.0864H133.692ZM133.343 39.3288L132.763 39.2083C132.553 40.2207 132.191 40.9344 131.718 41.4068L132.137 41.8256L132.556 42.2445C133.24 41.5602 133.682 40.6094 133.923 39.4493L133.343 39.3288ZM132.137 41.8256L131.716 41.4094C131.247 41.8839 130.567 42.2359 129.626 42.4306L129.746 43.0106L129.866 43.5906C130.971 43.362 131.885 42.9241 132.558 42.2419L132.137 41.8256ZM129.746 43.0106L129.622 42.4314C128.655 42.6381 127.396 42.7462 125.832 42.7462V43.3386V43.9309C127.441 43.9309 128.791 43.8204 129.87 43.5898L129.746 43.0106ZM125.832 43.3386V42.7462H122.002V43.3386V43.9309H125.832V43.3386ZM152.996 36.028L152.726 36.5556L152.735 36.5599L152.996 36.028ZM151.388 35.6894L151.342 36.28L151.347 36.2804L151.388 35.6894ZM148.404 35.573L148.414 34.9808L148.413 34.9808L148.404 35.573ZM142.522 35.4884L142.513 36.0806H142.513L142.522 35.4884ZM137.02 34.4939L136.665 34.9678L136.67 34.9713L137.02 34.4939ZM136.11 33.1397L135.537 33.2901L135.539 33.2967L136.11 33.1397ZM136.195 28.7385L135.636 28.5414L135.634 28.5473L136.195 28.7385ZM137.327 27.3314L137.017 26.827L137.014 26.8288L137.327 27.3314ZM139.655 26.6226L139.733 27.2097L139.737 27.2091L139.655 26.6226ZM153.948 27.1833L154.248 26.6726L153.948 27.1833ZM155.154 28.7279L154.594 28.9203L154.595 28.9254L155.154 28.7279ZM155.524 31.6056V32.1979H156.117V31.6056H155.524ZM153.493 31.6056H152.901V32.1979H153.493V31.6056ZM153.218 29.4685L152.661 29.6703L152.665 29.6801L153.218 29.4685ZM152.329 28.474L152.095 29.018L152.098 29.0194L152.329 28.474ZM140.607 28.2413L140.568 27.6502L140.568 27.6502L140.607 28.2413ZM138.11 29.4262L137.55 29.2328L137.547 29.242L138.11 29.4262ZM138.057 32.3991L137.485 32.551L138.057 32.3991ZM138.671 33.1926L138.374 33.7055L138.381 33.7093L138.388 33.713L138.671 33.1926ZM140.162 33.5629L140.1 34.152L140.107 34.1525L140.162 33.5629ZM142.903 33.6793L142.911 33.087L142.91 33.087L142.903 33.6793ZM149.208 33.7639L149.217 33.1716L149.216 33.1716L149.208 33.7639ZM152.752 34.0284L152.65 34.6118L152.655 34.6126L152.752 34.0284ZM154.741 34.7584L154.379 35.2268L154.382 35.2295L154.741 34.7584ZM155.619 36.1338L155.044 36.2741L155.046 36.2824L155.619 36.1338ZM155.567 40.7042L154.997 40.5431L154.995 40.5473L155.567 40.7042ZM137.518 42.3864L137.188 42.8783L137.194 42.8829L137.518 42.3864ZM135.888 37.6149V37.0226H135.296V37.6149H135.888ZM137.92 37.6149H138.512V37.0226H137.92V37.6149ZM139.009 41.0956L138.706 41.6044L138.716 41.6105L139.009 41.0956ZM140.713 41.5188L140.672 42.1098L140.678 42.1102L140.713 41.5188ZM151.345 41.4659L151.408 42.055L151.413 42.0543L151.345 41.4659ZM152.974 41.0004L153.294 41.4994L153.301 41.4948L152.974 41.0004ZM153.652 40.0059L153.076 39.8645L153.074 39.8734L153.652 40.0059ZM153.81 38.3026H154.403C154.403 37.6527 154.352 37.0984 154.233 36.6646L153.662 36.8214L153.091 36.9782C153.169 37.2639 153.218 37.6971 153.218 38.3026H153.81ZM153.662 36.8214L154.233 36.6646C154.088 36.1353 153.749 35.7373 153.256 35.496L152.996 36.028L152.735 36.5599C152.934 36.6572 153.039 36.7882 153.091 36.9782L153.662 36.8214ZM152.996 36.028L153.265 35.5004C152.81 35.2683 152.176 35.1493 151.428 35.0985L151.388 35.6894L151.347 36.2804C152.052 36.3282 152.49 36.4349 152.726 36.5556L152.996 36.028ZM151.388 35.6894L151.433 35.0989C150.689 35.0411 149.681 35.002 148.414 34.9808L148.404 35.573L148.394 36.1653C149.652 36.1863 150.633 36.2249 151.342 36.2799L151.388 35.6894ZM148.404 35.573L148.413 34.9808L142.53 34.8961L142.522 35.4884L142.513 36.0806L148.396 36.1653L148.404 35.573ZM142.522 35.4884L142.53 34.8961C141.092 34.8752 139.96 34.788 139.122 34.6406L139.02 35.2239L138.917 35.8072C139.843 35.9702 141.045 36.0593 142.513 36.0806L142.522 35.4884ZM139.02 35.2239L139.122 34.6406C138.283 34.4927 137.718 34.2713 137.371 34.0165L137.02 34.4939L136.67 34.9713C137.226 35.3795 137.994 35.6447 138.917 35.8072L139.02 35.2239ZM137.02 34.4939L137.376 34.0201C137.033 33.7634 136.803 33.4254 136.682 32.9826L136.11 33.1397L135.539 33.2967C135.728 33.9825 136.104 34.5473 136.665 34.9677L137.02 34.4939ZM136.11 33.1397L136.683 32.9893C136.552 32.4907 136.481 31.84 136.481 31.0238H135.888H135.296C135.296 31.9002 135.372 32.6601 135.537 33.2901L136.11 33.1397ZM135.888 31.0238H136.481C136.481 30.1378 136.579 29.4465 136.756 28.9298L136.195 28.7385L135.634 28.5473C135.402 29.2296 135.296 30.0618 135.296 31.0238H135.888ZM136.195 28.7385L136.754 28.9357C136.92 28.4638 137.211 28.1021 137.64 27.8341L137.327 27.3314L137.014 26.8288C136.357 27.2379 135.893 27.8143 135.636 28.5414L136.195 28.7385ZM137.327 27.3314L137.637 27.8359C138.088 27.5584 138.772 27.3382 139.733 27.2097L139.655 26.6226L139.576 26.0355C138.534 26.175 137.666 26.4274 137.017 26.827L137.327 27.3314ZM139.655 26.6226L139.737 27.2091C140.701 27.0734 141.964 27.0033 143.537 27.0033V26.411V25.8187C141.936 25.8187 140.612 25.8896 139.572 26.0361L139.655 26.6226ZM143.537 26.411V27.0033H148.065V26.411V25.8187H143.537V26.411ZM148.065 26.411V27.0033C149.494 27.0033 150.672 27.0489 151.606 27.1381L151.663 26.5485L151.719 25.9589C150.734 25.8648 149.515 25.8187 148.065 25.8187V26.411ZM151.663 26.5485L151.606 27.1381C152.517 27.2252 153.185 27.4219 153.648 27.694L153.948 27.1833L154.248 26.6726C153.582 26.2817 152.727 26.0553 151.719 25.9589L151.663 26.5485ZM153.948 27.1833L153.648 27.694C154.074 27.9446 154.394 28.3376 154.594 28.9203L155.154 28.7279L155.714 28.5356C155.435 27.7218 154.95 27.085 154.248 26.6726L153.948 27.1833ZM155.154 28.7279L154.595 28.9254C154.81 29.5324 154.932 30.415 154.932 31.6056H155.524H156.117C156.117 30.3559 155.991 29.32 155.712 28.5305L155.154 28.7279ZM155.524 31.6056V31.0133H153.493V31.6056V32.1979H155.524V31.6056ZM153.493 31.6056H154.085C154.085 30.6385 153.994 29.839 153.771 29.257L153.218 29.4685L152.665 29.6801C152.809 30.0573 152.901 30.6825 152.901 31.6056H153.493ZM153.218 29.4685L153.775 29.2668C153.551 28.65 153.151 28.1788 152.56 27.9287L152.329 28.474L152.098 29.0194C152.34 29.1219 152.532 29.3138 152.661 29.6703L153.218 29.4685ZM152.329 28.474L152.564 27.9301C152.056 27.7112 151.416 27.6111 150.68 27.5962L150.668 28.1884L150.656 28.7806C151.316 28.7939 151.784 28.8842 152.095 29.018L152.329 28.474ZM150.668 28.1884L150.68 27.5962C149.976 27.582 149.105 27.5749 148.065 27.5749V28.1672V28.7595C149.1 28.7595 149.963 28.7666 150.656 28.7806L150.668 28.1884ZM148.065 28.1672V27.5749H143.643V28.1672V28.7595H148.065V28.1672ZM143.643 28.1672V27.5749C142.375 27.5749 141.348 27.5997 140.568 27.6502L140.607 28.2413L140.645 28.8323C141.389 28.7842 142.386 28.7595 143.643 28.7595V28.1672ZM140.607 28.2413L140.568 27.6502C139.789 27.7012 139.133 27.8201 138.648 28.0406L138.893 28.5798L139.138 29.119C139.429 28.9869 139.916 28.8801 140.645 28.8323L140.607 28.2413ZM138.893 28.5798L138.648 28.0406C138.118 28.2813 137.739 28.6848 137.55 29.2328L138.11 29.4262L138.67 29.6196C138.749 29.3917 138.892 29.231 139.138 29.119L138.893 28.5798ZM138.11 29.4262L137.547 29.242C137.392 29.7157 137.327 30.3196 137.327 31.0238H137.92H138.512C138.512 30.3737 138.574 29.9126 138.673 29.6104L138.11 29.4262ZM137.92 31.0238H137.327C137.327 31.6197 137.374 32.1354 137.485 32.551L138.057 32.3991L138.63 32.2472C138.556 31.9716 138.512 31.5704 138.512 31.0238H137.92ZM138.057 32.3991L137.485 32.551C137.618 33.0531 137.924 33.4455 138.374 33.7055L138.671 33.1926L138.967 32.6797C138.782 32.5729 138.68 32.4363 138.63 32.2472L138.057 32.3991ZM138.671 33.1926L138.388 33.713C138.816 33.9456 139.406 34.0789 140.1 34.1519L140.162 33.5629L140.224 32.9738C139.579 32.9058 139.175 32.7923 138.954 32.6722L138.671 33.1926ZM140.162 33.5629L140.107 34.1525C140.8 34.2183 141.732 34.2573 142.895 34.2715L142.903 33.6793L142.91 33.087C141.76 33.073 140.865 33.0345 140.218 32.9732L140.162 33.5629ZM142.903 33.6793L142.895 34.2715L149.2 34.3562L149.208 33.7639L149.216 33.1716L142.911 33.087L142.903 33.6793ZM149.208 33.7639L149.2 34.3561C150.667 34.3771 151.813 34.4644 152.65 34.6117L152.752 34.0284L152.855 33.445C151.929 33.282 150.712 33.193 149.217 33.1717L149.208 33.7639ZM152.752 34.0284L152.655 34.6126C153.501 34.7537 154.053 34.9746 154.379 35.2267L154.741 34.7584L155.104 34.29C154.555 33.8651 153.781 33.5993 152.85 33.4441L152.752 34.0284ZM154.741 34.7584L154.382 35.2295C154.711 35.4802 154.933 35.8182 155.044 36.2741L155.619 36.1338L156.195 35.9934C156.024 35.2926 155.66 34.7136 155.1 34.2873L154.741 34.7584ZM155.619 36.1338L155.046 36.2824C155.177 36.7879 155.249 37.4565 155.249 38.3026H155.842H156.434C156.434 37.3995 156.358 36.6222 156.193 35.9851L155.619 36.1338ZM155.842 38.3026H155.249C155.249 39.2208 155.16 39.9632 154.997 40.5431L155.567 40.7042L156.136 40.8653C156.339 40.1474 156.434 39.2888 156.434 38.3026H155.842ZM155.567 40.7042L154.995 40.5473C154.852 41.0673 154.58 41.4693 154.173 41.7758L154.53 42.2488L154.886 42.7219C155.509 42.2525 155.928 41.6247 156.138 40.8611L155.567 40.7042ZM154.53 42.2488L154.173 41.7758C153.763 42.085 153.122 42.3401 152.196 42.5011L152.297 43.0846L152.399 43.6682C153.42 43.4906 154.267 43.1885 154.886 42.7219L154.53 42.2488ZM152.297 43.0846L152.196 42.5011C151.27 42.6621 150.028 42.7462 148.457 42.7462V43.3386V43.9309C150.06 43.9309 151.378 43.8457 152.399 43.6682L152.297 43.0846ZM148.457 43.3386V42.7462H143.506V43.3386V43.9309H148.457V43.3386ZM143.506 43.3386V42.7462C142.075 42.7462 140.889 42.6833 139.942 42.5607L139.866 43.1481L139.79 43.7355C140.804 43.8669 142.045 43.9309 143.506 43.9309V43.3386ZM139.866 43.1481L139.942 42.5607C139.016 42.4407 138.327 42.2065 137.841 41.8899L137.518 42.3864L137.194 42.8829C137.879 43.328 138.756 43.6016 139.79 43.7355L139.866 43.1481ZM137.518 42.3864L137.847 41.8945C137.394 41.5905 137.05 41.1318 136.831 40.4746L136.269 40.6619L135.707 40.8492C135.996 41.7155 136.484 42.4064 137.188 42.8783L137.518 42.3864ZM136.269 40.6619L136.831 40.4746C136.605 39.7978 136.481 38.8533 136.481 37.6149H135.888H135.296C135.296 38.9156 135.425 40.0025 135.707 40.8492L136.269 40.6619ZM135.888 37.6149V38.2072H137.92V37.6149V37.0226H135.888V37.6149ZM137.92 37.6149H137.327C137.327 38.6305 137.409 39.4663 137.595 40.0908L138.163 39.9213L138.73 39.7518C138.592 39.2901 138.512 38.5883 138.512 37.6149H137.92ZM138.163 39.9213L137.595 40.0908C137.791 40.7445 138.151 41.2732 138.706 41.6043L139.009 41.0956L139.313 40.587C139.064 40.4385 138.86 40.1843 138.73 39.7518L138.163 39.9213ZM139.009 41.0956L138.716 41.6105C139.234 41.9048 139.901 42.0574 140.672 42.1098L140.713 41.5188L140.753 40.9279C140.071 40.8816 139.603 40.752 139.302 40.5808L139.009 41.0956ZM140.713 41.5188L140.678 42.1102C141.428 42.1534 142.371 42.1746 143.506 42.1746V41.5823V40.99C142.383 40.99 141.465 40.9689 140.747 40.9275L140.713 41.5188ZM143.506 41.5823V42.1746H148.351V41.5823V40.99H143.506V41.5823ZM148.351 41.5823V42.1746C149.622 42.1746 150.644 42.1357 151.408 42.055L151.345 41.4659L151.283 40.8769C150.58 40.9513 149.605 40.99 148.351 40.99V41.5823ZM151.345 41.4659L151.413 42.0543C152.178 41.9661 152.828 41.7976 153.294 41.4993L152.974 41.0004L152.655 40.5015C152.416 40.6547 151.98 40.7965 151.277 40.8775L151.345 41.4659ZM152.974 41.0004L153.301 41.4948C153.787 41.1741 154.098 40.7097 154.229 40.1384L153.652 40.0059L153.074 39.8734C153.008 40.1626 152.868 40.3613 152.648 40.5061L152.974 41.0004ZM153.652 40.0059L154.227 40.1474C154.349 39.6519 154.403 39.0311 154.403 38.3026H153.81H153.218C153.218 38.9848 153.166 39.4995 153.076 39.8645L153.652 40.0059Z" fill="white" mask="url(#path-2-outside-1_1811_2879)"/>
</svg>
